<svg version="1.1" xmlns="http://www.w3.org/2000/svg" viewBox="0 0 2141.5694807706222 1560" width="2141.5694807706222" height="1560">
  <!-- svg-source:excalidraw -->
  
  <defs>
    <style>
      @font-face {
        font-family: "Virgil";
        src: url("https://excalidraw.com/Virgil.woff2");
      }
      @font-face {
        font-family: "Cascadia";
        src: url("https://excalidraw.com/Cascadia.woff2");
      }
    </style>
  </defs>
  <rect x="0" y="0" width="2141.5694807706222" height="1560" fill="#ffffff"></rect><g stroke-linecap="round" transform="translate(1250 850) rotate(0 150 140)"><path d="M43.18 41.51 C43.18 41.51, 43.18 41.51, 43.18 41.51 M43.18 41.51 C43.18 41.51, 43.18 41.51, 43.18 41.51 M25.35 84.98 C38.58 68.56, 54.03 53.74, 82.85 17.77 M26.67 85.09 C42.4 67.88, 56.96 48.94, 83.82 18.3 M11.41 127.87 C43.6 91.97, 72.07 55.73, 113.83 10.07 M12.14 127.34 C32.85 102.56, 53.09 79.63, 114.17 9.08 M1.74 162.47 C31.76 127.75, 59.19 92.56, 134.04 7.95 M0.55 163.45 C27.75 132.42, 54.51 101.41, 135.07 7.99 M7.6 179.63 C48.07 134.4, 87.32 90.32, 155.9 9.58 M8.08 180.89 C43.83 137.28, 81.12 94.17, 155.81 9.28 M12.64 196.11 C65.85 134.74, 121.56 74.9, 178.49 9.3 M13.58 198.08 C47.84 159.41, 82.28 120.92, 178.11 7.25 M23.23 210.15 C82.43 143.76, 141.79 73.06, 194.79 12.58 M22.47 210.25 C84.01 140.72, 143.21 71.9, 195.63 13.21 M33.86 222.81 C77.18 177.02, 120.14 128.66, 212.4 17.27 M33.87 223.73 C103.87 142.01, 173.93 61.24, 212.38 16.95 M43.73 235.64 C96.04 177.56, 145.34 121.86, 227.56 24.98 M43.47 236.88 C86.52 187.91, 128.98 139.5, 227.37 23.87 M53.38 249.96 C97.55 196.85, 139.26 147.93, 241.37 33.16 M53.92 249.15 C124.12 166.72, 193.46 87.53, 241.56 33.24 M66.63 257.98 C140.12 173.85, 214.2 88.69, 254.94 41.51 M67.88 257.31 C118.01 198.92, 168.33 141.85, 255.87 40.36 M82.89 265.86 C126.35 212.27, 172.27 158.87, 264.37 55.11 M81.43 266.39 C145.97 189.97, 210.31 115.6, 266.55 54.09 M94.69 273.37 C161.89 197.13, 227.89 122.34, 275.02 66.47 M95.6 274.71 C161.42 196.09, 229.37 119.55, 275.82 66.93 M111.02 279.65 C153.96 235.26, 190.81 188.95, 285.23 79.43 M111.98 279.56 C153.38 231.79, 193.85 186.42, 286.87 79.39 M132.03 281.63 C179.38 224.14, 227.9 167.95, 290.63 97.86 M132.06 281.21 C182.58 223.98, 234.39 165.24, 292.27 96.53 M153.71 283.68 C201.98 223.83, 254.35 164.4, 299 114.43 M152.42 281.51 C199.59 226.33, 246.98 171.85, 299.9 113.12 M177.17 279.62 C206.94 245.39, 237 210.25, 309.08 125.84 M176.21 280.02 C203.6 247.53, 231.27 214.65, 308.38 127.43 M205.48 269.38 C222.4 251.59, 241.03 226.46, 297.79 161.08 M204.11 272.16 C226.17 246.42, 246.59 223.31, 298.45 160.88 M226.52 271.87 C249.52 245.94, 269.1 220.99, 285.38 201.83 M224.84 271.43 C237.6 256.98, 251.42 240.76, 284.54 203.97" stroke="#ced4da" stroke-width="2" fill="none"></path><path d="M126.77 1.73 C140.65 -2.74, 156.82 -0.26, 171.89 1.99 C186.95 4.24, 203.22 8.78, 217.15 15.22 C231.08 21.65, 244.56 30.54, 255.47 40.6 C266.38 50.66, 275.52 62.67, 282.6 75.57 C289.69 88.47, 295.33 103.68, 297.99 118.01 C300.66 132.34, 301.01 147.23, 298.61 161.56 C296.21 175.89, 290.73 191.16, 283.6 204 C276.47 216.85, 266.72 228.52, 255.83 238.63 C244.94 248.73, 232.03 257.99, 218.28 264.61 C204.52 271.23, 188.54 276.17, 173.29 278.33 C158.04 280.49, 141.78 279.85, 126.78 277.57 C111.78 275.29, 97.07 270.84, 83.29 264.63 C69.52 258.42, 55.27 250.29, 44.12 240.3 C32.97 230.3, 23.54 217.57, 16.39 204.67 C9.24 191.77, 3.79 177.37, 1.22 162.9 C-1.34 148.43, -1.42 132.05, 1.02 117.82 C3.45 103.59, 8.84 90.18, 15.82 77.52 C22.8 64.86, 31.97 52.1, 42.88 41.86 C53.8 31.62, 66.94 22.9, 81.3 16.09 C95.66 9.28, 120.32 3.17, 129.03 0.98 C137.75 -1.2, 133.35 0.47, 133.59 2.98 M206.38 10.14 C220.74 13.31, 233.46 23.6, 245.05 32.94 C256.65 42.29, 267.36 54.17, 275.96 66.2 C284.56 78.23, 292.5 91.26, 296.67 105.11 C300.85 118.96, 302.43 135.06, 301.01 149.31 C299.6 163.56, 294.3 177.3, 288.17 190.61 C282.04 203.92, 273.93 217.9, 264.23 229.17 C254.53 240.44, 242.66 250.22, 229.98 258.23 C217.3 266.24, 203.14 273.69, 188.16 277.23 C173.18 280.76, 156.01 280.49, 140.1 279.43 C124.18 278.37, 106.88 275.99, 92.69 270.85 C78.49 265.71, 66.39 258.14, 54.95 248.59 C43.51 239.05, 32.24 225.74, 24.04 213.57 C15.84 201.4, 9.64 189.54, 5.78 175.57 C1.92 161.59, 0.06 144.24, 0.85 129.73 C1.65 115.22, 4.83 101.96, 10.56 88.48 C16.29 75.01, 25.11 60.05, 35.24 48.9 C45.37 37.75, 58.36 29.04, 71.32 21.58 C84.28 14.11, 97.97 7.53, 113.01 4.11 C128.05 0.69, 146.03 0.15, 161.56 1.08 C177.09 2, 199.11 7.5, 206.19 9.68 C213.26 11.86, 204.99 12.01, 204 14.15" stroke="#1864ab" stroke-width="4" fill="none"></path></g><g stroke-linecap="round" transform="translate(1250 1270) rotate(0 150 140)"><path d="M21.93 68.09 C21.93 68.09, 21.93 68.09, 21.93 68.09 M21.93 68.09 C21.93 68.09, 21.93 68.09, 21.93 68.09 M5.69 112.07 C29.89 79.56, 58.71 53.14, 92.13 10.93 M6.73 109.59 C35.8 78.42, 63.82 45.22, 92.33 10.72 M3.65 137.73 C29.36 113.93, 50.7 85.04, 116.92 6.52 M2.82 138.96 C46.25 88.33, 87.67 38.49, 119.3 5.57 M7.25 157.53 C36.12 126.58, 62.52 93.29, 140.62 5.5 M8.15 157.15 C48.82 112.81, 87.12 65.9, 141.38 4.07 M11.03 175.3 C54.66 127.96, 97.47 78.52, 160.12 7.28 M12.56 176.15 C62.22 118.19, 112.68 59.55, 160.64 6.14 M15.68 196.67 C57.35 150.87, 96.83 106.6, 182.39 3.35 M15.9 197.02 C61.36 145.88, 107.28 93.59, 182.8 4.5 M25.02 211.17 C82.35 147.95, 140.37 80.16, 199.43 11.84 M24.94 211.77 C93.74 134, 162.7 55.21, 198.91 9.82 M34.58 225.35 C76.01 178.43, 120.62 129.25, 215.2 17.75 M33.6 224.82 C87.64 165.34, 140.5 104.7, 215.8 16.27 M43.46 238.83 C94.09 182.62, 141.81 123.84, 229.55 22.66 M43.86 238.28 C84.63 188.47, 126.98 139.95, 230.69 24.06 M55.91 247.14 C112.68 184.06, 170.24 116.81, 244.35 33.86 M56.47 247.3 C108.41 188.77, 158.56 131.43, 242.96 32.21 M68.92 258.84 C113.41 203.14, 161.32 151.96, 255.57 43.03 M68.63 256.99 C122.78 194.91, 177.57 132.64, 256.68 43.12 M81.24 268.06 C140.3 200.84, 195.22 135.04, 268.01 51.82 M81.36 267.29 C140.64 201.65, 198.05 135.91, 268.88 52.89 M96.66 273.19 C149.52 215.37, 201.79 153.25, 277.97 66.27 M97.53 274.7 C144.51 222.24, 191.83 167.54, 278.02 65.74 M112.43 281.27 C168.51 216.79, 223.64 150.06, 286.33 79.89 M113.38 279.84 C176.08 206.59, 239.27 134.05, 287.27 79.84 M127.21 287.7 C169.37 240.25, 208.96 191.55, 296.9 92.48 M128.73 286.98 C182.37 227.63, 234.1 166.63, 296.58 92.7 M148.93 289.66 C177.55 253.86, 209.12 216.28, 301.87 111.13 M148.62 288.2 C206.47 218.77, 265.91 151.01, 301.57 112.6 M172.11 287.04 C204.75 248.92, 233.36 212.11, 305.2 134.23 M171.01 286.07 C207.28 244.25, 245.13 202.79, 304.15 133 M196.47 281.78 C224.24 250.74, 249.89 220.28, 304.05 160.56 M198.09 280.17 C239.43 232.48, 280.82 183.21, 302.94 158.07 M247.96 245.37 C261.21 232.27, 270.33 220.93, 308.08 180.31 M249.48 244.99 C267.01 226.76, 282.48 206.26, 305.98 180.11" stroke="#ced4da" stroke-width="2" fill="none"></path><path d="M183.46 4.01 C198.27 5.09, 213.79 13.6, 227.03 20.83 C240.28 28.05, 252.62 36.52, 262.94 47.35 C273.27 58.19, 283.02 72.55, 288.99 85.85 C294.97 99.14, 297.63 113.02, 298.77 127.13 C299.91 141.24, 299.16 156.25, 295.83 170.49 C292.5 184.74, 286.56 200.11, 278.8 212.61 C271.04 225.11, 260.96 236.03, 249.28 245.51 C237.6 254.99, 222.92 263.91, 208.69 269.48 C194.47 275.06, 179.38 277.66, 163.92 278.94 C148.46 280.23, 131.03 280.34, 115.92 277.18 C100.8 274.02, 86.46 267.48, 73.23 259.98 C59.99 252.48, 46.7 243, 36.52 232.15 C26.33 221.3, 18.09 208.24, 12.12 194.88 C6.14 181.52, 1.88 166.29, 0.66 152 C-0.56 137.71, 1.22 123.17, 4.78 109.16 C8.35 95.16, 14.36 80.32, 22.03 67.97 C29.7 55.63, 39.21 44.69, 50.8 35.09 C62.38 25.48, 77.17 16.2, 91.52 10.36 C105.88 4.53, 118.89 0.52, 136.91 0.07 C154.93 -0.39, 186.77 4.71, 199.67 7.63 C212.57 10.55, 214.94 15.2, 214.29 17.61 M120.83 2.42 C134.7 -2.25, 151.93 0.19, 167.14 1.67 C182.35 3.15, 197.96 5.26, 212.09 11.31 C226.23 17.36, 240.5 27.87, 251.98 37.97 C263.46 48.06, 273.5 59.44, 280.99 71.89 C288.47 84.34, 293.87 98.9, 296.88 112.66 C299.89 126.42, 300.54 140.41, 299.06 154.46 C297.59 168.5, 294.52 183.75, 288.05 196.92 C281.58 210.1, 270.73 222.6, 260.26 233.5 C249.79 244.4, 238.75 254.99, 225.22 262.33 C211.69 269.67, 194.36 274.6, 179.1 277.53 C163.85 280.46, 149.08 281.49, 133.67 279.92 C118.26 278.35, 101 274.26, 86.66 268.1 C72.31 261.94, 58.67 252.57, 47.6 242.97 C36.53 233.38, 27.44 223.01, 20.24 210.54 C13.04 198.06, 7.85 182.37, 4.39 168.12 C0.94 153.88, -1.89 139.29, -0.49 125.04 C0.91 110.79, 6.21 95.83, 12.78 82.61 C19.36 69.39, 28.63 56.51, 38.95 45.71 C49.26 34.91, 61.23 24.83, 74.68 17.82 C88.12 10.81, 111.94 5.6, 119.64 3.63 C127.34 1.67, 120.43 3.6, 120.87 6" stroke="#1864ab" stroke-width="4" fill="none"></path></g><g stroke-linecap="round"><g transform="translate(1410 1130) rotate(0 0.1996503793316151 70.32159043565434)"><path d="M0.73 0.89 C0.92 24.11, 0.46 115.96, 0.38 139.21 M-0.35 0.32 C-0.21 23.68, -0.36 117.35, -0.37 140.33" stroke="#1864ab" stroke-width="4" fill="none"></path></g><g transform="translate(1410 1130) rotate(0 0.1996503793316151 70.32159043565434)"><path d="M-9.12 112.75 C-9.56 119.03, -5.27 125.64, -2.23 141.39 M-9.75 111.81 C-7.75 120.31, -4.25 126.02, -1.13 141.28" stroke="#1864ab" stroke-width="4" fill="none"></path></g><g transform="translate(1410 1130) rotate(0 0.1996503793316151 70.32159043565434)"><path d="M11.41 112.77 C6.16 119.17, 5.66 125.78, -2.23 141.39 M10.77 111.84 C7.47 120.46, 5.67 126.17, -1.13 141.28" stroke="#1864ab" stroke-width="4" fill="none"></path></g></g><g stroke-linecap="round" transform="translate(1250 430) rotate(0 150 140)"><path d="M38.99 45.82 C38.99 45.82, 38.99 45.82, 38.99 45.82 M38.99 45.82 C38.99 45.82, 38.99 45.82, 38.99 45.82 M23.54 89.62 C35.41 72.55, 50.22 55.76, 82.74 19.78 M22.72 89.28 C33.92 74.67, 46.26 61.71, 81.59 20.28 M9.32 128.83 C41.84 94.67, 71.06 55.58, 110.88 10.46 M7.87 130.95 C32.92 100.59, 58.85 71.69, 111.98 10.87 M8.21 154.23 C43.41 113.23, 76.44 76.3, 133.34 9.72 M9.75 153.37 C56.95 96.22, 105.74 40.04, 131.55 12.63 M12.36 173.43 C50.88 128.99, 90.62 84.47, 154.97 10.93 M12.35 174.34 C51.91 128.05, 90.65 82.25, 152.82 11.34 M19.62 192.29 C64.86 140.19, 110 86.74, 177.54 10.57 M18.05 191.96 C65.23 137.66, 111.32 84.29, 177.47 9.9 M21.8 210 C87.87 138.12, 152.47 64.18, 194.45 13.53 M22.44 210.81 C72.5 150.32, 124.18 91.08, 193.77 14.29 M32.94 225.26 C100.64 144.56, 170.06 65.23, 216.82 14.5 M32.3 223.64 C82.66 164.85, 135.38 105.78, 215.62 13.21 M42.34 235.62 C110.43 158.63, 179.37 80.51, 228.64 22.4 M43.12 235.94 C89.27 180.24, 138.91 125.59, 228.56 22.92 M54.91 247.03 C112.21 179.62, 173.45 110.59, 243.12 31.47 M53.61 248.72 C118.63 175, 183.72 100.05, 242.37 30.87 M67.36 256.67 C134.76 178.36, 200.75 103.53, 254.68 39.24 M68.47 256.38 C115.46 200.59, 163.37 147.19, 256.26 39.93 M82.52 263.99 C128.84 210.84, 173.33 158.12, 267.75 52.13 M81.94 265.04 C147.44 190.24, 212.23 114.85, 266.78 51.9 M96.34 272.46 C142.47 222.31, 189.51 166.82, 277.21 66.89 M95.39 273.95 C133.71 228.01, 172.19 184.62, 276.68 65.64 M113.12 279.28 C147.71 236.3, 185.13 193.56, 286.79 76.62 M112.53 278.83 C182.97 197.46, 253.6 116.93, 287.92 76.36 M133.48 278.96 C183.18 219.85, 239.16 159.5, 294.89 94.92 M132.12 279.47 C171.18 236.71, 211.16 192.11, 294.41 93.5 M155.1 279.72 C207.27 214.14, 262.97 153.9, 297.67 114.6 M154.85 278.88 C190.37 238.17, 225.65 196.16, 298.34 114.49 M175.97 276.8 C206.62 242.57, 236.41 209.89, 297.3 138.56 M177.38 278.71 C209.02 239.06, 243.28 202.23, 298.93 137.76 M191.14 287.37 C220.21 253.73, 249 220.56, 299.91 157.59 M190.54 285.63 C222.12 249.68, 252.91 213.57, 301.13 158.64 M229.43 268.43 C241.6 252.67, 255.54 239.99, 284.91 201.91 M229.41 266.37 C250.31 241.83, 272.3 215.78, 286.29 200.19" stroke="#ced4da" stroke-width="2" fill="none"></path><path d="M120.43 1.87 C134.25 -2.9, 151.94 -0.74, 167.47 0.95 C183 2.65, 199.42 6.02, 213.61 12.02 C227.79 18.01, 241.42 27.08, 252.59 36.91 C263.77 46.74, 273.19 58.26, 280.66 71.02 C288.12 83.78, 294.23 99.24, 297.38 113.47 C300.53 127.7, 301.47 142.09, 299.53 156.41 C297.59 170.73, 292.31 186.33, 285.73 199.39 C279.14 212.44, 270.26 224.31, 260.01 234.74 C249.76 245.17, 237.68 254.91, 224.23 261.96 C210.79 269, 194.79 274.24, 179.35 277.01 C163.91 279.77, 146.89 280.21, 131.6 278.55 C116.31 276.9, 101.46 273.02, 87.6 267.08 C73.74 261.13, 59.92 252.57, 48.45 242.87 C36.99 233.17, 26.37 221.62, 18.81 208.88 C11.25 196.14, 6.1 180.6, 3.06 166.43 C0.03 152.27, -1.25 137.93, 0.58 123.9 C2.42 109.87, 7.66 95.3, 14.09 82.25 C20.52 69.2, 28.7 56.51, 39.17 45.61 C49.65 34.71, 61.18 24.41, 76.95 16.83 C92.71 9.25, 121.66 2.54, 133.76 0.14 C145.86 -2.25, 149.03 -0.07, 149.54 2.47 M218.88 14.69 C232.86 18.72, 246.5 30.29, 257.25 40.77 C267.99 51.26, 276.53 64.62, 283.35 77.61 C290.17 90.6, 295.72 104.7, 298.15 118.73 C300.57 132.76, 300.38 147.36, 297.88 161.78 C295.39 176.19, 290.42 192.09, 283.19 205.21 C275.97 218.33, 265.39 230.22, 254.52 240.5 C243.65 250.77, 231.81 260.71, 217.95 266.85 C204.1 272.99, 186.86 275.24, 171.39 277.32 C155.93 279.41, 140.06 281.8, 125.16 279.37 C110.26 276.94, 95.75 269.67, 81.99 262.75 C68.22 255.83, 53.64 247.75, 42.56 237.85 C31.48 227.94, 22.27 216.27, 15.52 203.32 C8.77 190.37, 4.12 174.35, 2.05 160.13 C-0.02 145.92, 0.75 131.99, 3.1 118.04 C5.45 104.1, 9.05 89.49, 16.17 76.47 C23.28 63.44, 34.71 50.34, 45.77 39.87 C56.84 29.41, 68.68 20.04, 82.56 13.68 C96.43 7.32, 113.47 3.61, 129.01 1.71 C144.54 -0.19, 160.85 0.08, 175.76 2.25 C190.68 4.42, 211.25 12.04, 218.5 14.73 C225.75 17.42, 220.03 16.35, 219.26 18.38" stroke="#1864ab" stroke-width="4" fill="none"></path></g><g stroke-linecap="round" transform="translate(1250 10) rotate(0 150 140)"><path d="M36.54 47.66 C36.54 47.66, 36.54 47.66, 36.54 47.66 M36.54 47.66 C36.54 47.66, 36.54 47.66, 36.54 47.66 M16.62 92.85 C30.91 76.1, 48.64 57.46, 75.57 23.77 M17.52 92.63 C40.3 67.39, 63.8 39.5, 77.57 24.74 M6.38 133.86 C32.47 98.18, 62.9 64.49, 115.49 5.79 M4.46 132.23 C27.14 106.47, 50.76 79.7, 116.23 4.39 M6.06 154.64 C40.32 116.42, 76.94 73.92, 141.39 2.96 M5.97 155.57 C55.86 97.21, 105.4 40.8, 139.47 1.65 M7.7 177.55 C63.67 114.68, 121.57 48.69, 161.92 1.18 M9.52 176.9 C60.01 117, 111.85 56.91, 162.16 0.45 M16.47 193.75 C53.07 148.23, 92.07 105.98, 175.54 10.13 M16.8 192.79 C63.33 138.91, 109.58 87.01, 176.24 8.92 M24.17 209.7 C84.79 142.05, 143.53 72.83, 192.99 15.53 M23.57 208.38 C87.01 136.2, 151.04 63.06, 193.59 13.72 M32.36 220.19 C71.06 174.5, 112.7 131.62, 213.29 15.37 M33.12 221.56 C87.42 161.76, 140.52 99.68, 214.07 14.23 M42.54 234.56 C100 171.11, 155.37 107.16, 227.01 24.44 M43.27 233.57 C94.2 177.86, 143.15 120.61, 227.73 23.35 M52.99 246.89 C99.16 195, 143.79 144.54, 242.3 30.88 M53.02 247.94 C94.93 199.31, 135.61 152.36, 242.04 30.47 M66.55 254.95 C135.08 177.67, 202.72 98.48, 254.3 39.16 M66.67 255.48 C135.91 176.26, 205.76 95.74, 254.66 40.44 M82.93 263.17 C134.06 202.74, 188.78 141.91, 266.66 52.71 M81.95 264.09 C121.51 217.07, 162.6 170.12, 265.47 51.75 M95.35 273.96 C142.39 218.36, 190.14 165.94, 275.23 64.4 M95.41 271.8 C155.44 202.96, 216.36 133.38, 275.83 64.5 M113.36 276.36 C176.74 202.2, 236.46 131.98, 288.9 75.69 M113.36 276.13 C168.49 212.5, 222.19 150.06, 287.56 76.73 M129.36 280.64 C164.37 243.95, 196.7 206.42, 293.83 91.61 M130.32 281.08 C166.25 242.32, 199.66 202.7, 295.47 92.32 M145.08 286.43 C203.82 221.27, 261.86 153.49, 298.84 111.13 M146.46 287.52 C185.08 240.84, 225.87 195.98, 299.21 111.51 M170.56 285.04 C217.54 233.45, 261.99 179.24, 300.02 133.93 M168.99 284.56 C213.34 233.46, 256.74 182.82, 300.2 133.79 M192.89 283.72 C226.52 243.79, 257.39 204.36, 302.54 156.11 M192.08 283.07 C221.24 249.32, 251.82 214.86, 301.92 155.07 M231.08 263.66 C255.43 238.18, 274.54 212.04, 291.03 196.75 M230.48 263.87 C246.04 244.79, 262.78 225.83, 289.15 195.69" stroke="#ced4da" stroke-width="2" fill="none"></path><path d="M115.83 3.61 C129.78 -1.66, 148.06 -1.54, 163.62 -0.35 C179.17 0.84, 195.08 5.07, 209.14 10.73 C223.21 16.39, 236.41 23.97, 248 33.59 C259.6 43.21, 270.6 56.02, 278.72 68.45 C286.83 80.89, 293.31 94.17, 296.68 108.21 C300.06 122.26, 300.41 138.4, 298.98 152.73 C297.54 167.06, 293.83 181.06, 288.06 194.19 C282.29 207.31, 274.42 220.58, 264.34 231.48 C254.26 242.38, 241.1 252.18, 227.58 259.59 C214.07 266.99, 198.24 272.58, 183.24 275.89 C168.24 279.2, 152.82 280.58, 137.59 279.44 C122.37 278.3, 106.26 274.58, 91.9 269.05 C77.55 263.53, 63.16 255.91, 51.46 246.31 C39.77 236.71, 29.73 223.82, 21.73 211.45 C13.72 199.08, 6.91 185.85, 3.43 172.09 C-0.05 158.34, -0.44 143.23, 0.84 128.91 C2.12 114.58, 5.12 99.76, 11.12 86.16 C17.12 72.56, 26.76 58.41, 36.84 47.31 C46.92 36.2, 56.53 27.17, 71.59 19.51 C86.65 11.86, 116.15 3.98, 127.2 1.4 C138.25 -1.19, 137.45 1.55, 137.88 4.01 M191.78 4.29 C206.47 6.15, 220.44 15.86, 233.17 24.03 C245.9 32.2, 258.52 42.15, 268.16 53.3 C277.81 64.44, 285.7 77.15, 291.03 90.9 C296.36 104.65, 299.71 121.07, 300.14 135.82 C300.57 150.57, 297.74 165.36, 293.61 179.4 C289.48 193.43, 284.05 208.36, 275.36 220.02 C266.67 231.67, 253.88 240.51, 241.5 249.34 C229.12 258.16, 215.29 268.1, 201.1 272.97 C186.9 277.84, 171.84 278.34, 156.33 278.57 C140.82 278.79, 123.13 277.95, 108.03 274.33 C92.92 270.72, 78.36 265.03, 65.7 256.9 C53.04 248.77, 41.33 236.9, 32.04 225.57 C22.75 214.24, 15.42 202.21, 9.95 188.92 C4.48 175.63, -0.24 160.51, -0.78 145.85 C-1.33 131.19, 2.36 115.19, 6.68 100.97 C11 86.75, 16.44 72.39, 25.15 60.51 C33.85 48.63, 46.46 38.34, 58.9 29.69 C71.35 21.05, 85.61 13.78, 99.82 8.65 C114.03 3.52, 128.65 -0.56, 144.16 -1.09 C159.67 -1.61, 184.86 4.2, 192.87 5.51 C200.89 6.82, 193.06 4.5, 192.23 6.77" stroke="#1864ab" stroke-width="4" fill="none"></path></g><g stroke-linecap="round"><g transform="translate(1410 290) rotate(0 0.2918392657857112 69.71472445800873)"><path d="M-0.55 -0.44 C-0.63 22.76, -1.06 116.18, -0.97 139.74 M1.37 -1.71 C1.69 21.62, 1.6 117.68, 1.23 141.14" stroke="#1864ab" stroke-width="4" fill="none"></path></g><g transform="translate(1410 290) rotate(0 0.2918392657857112 69.71472445800873)"><path d="M-9.56 111.27 C-6.51 120.25, -1.94 125.94, 2.7 140.5 M-8.1 113.46 C-6.34 120.17, -2.74 128.32, 0.9 142.13" stroke="#1864ab" stroke-width="4" fill="none"></path></g><g transform="translate(1410 290) rotate(0 0.2918392657857112 69.71472445800873)"><path d="M10.96 111.41 C8.66 120.26, 7.87 125.91, 2.7 140.5 M12.42 113.6 C8.53 120.32, 6.48 128.44, 0.9 142.13" stroke="#1864ab" stroke-width="4" fill="none"></path></g></g><g stroke-linecap="round"><g transform="translate(1391.1520340711177 710.5924996327612) rotate(0 -0.4433223793430443 70.0969241584462)"><path d="M0.27 -0.59 C0.14 22.64, 0.22 116.04, 0.25 139.51 M-1.05 1.71 C-1.4 25.1, -0.73 117.47, -0.57 140.79" stroke="#1864ab" stroke-width="4" fill="none"></path></g><g transform="translate(1391.1520340711177 710.5924996327612) rotate(0 -0.4433223793430443 70.0969241584462)"><path d="M-12.01 113.08 C-7.82 124.16, -2.7 134.85, -0.23 140.19 M-11.56 113.53 C-7.8 118.81, -6.55 126.1, -0.57 141.27" stroke="#1864ab" stroke-width="4" fill="none"></path></g><g transform="translate(1391.1520340711177 710.5924996327612) rotate(0 -0.4433223793430443 70.0969241584462)"><path d="M8.51 112.94 C4.86 124.12, 2.14 134.87, -0.23 140.19 M8.96 113.4 C8.05 118.76, 4.62 126.09, -0.57 141.27" stroke="#1864ab" stroke-width="4" fill="none"></path></g></g><g transform="translate(1989.4864202902736 117.09220896454099) rotate(0 48.5 23)"><text x="0" y="32" font-family="Virgil, Segoe UI Emoji" font-size="36px" fill="#000000" text-anchor="start" style="white-space: pre;" direction="ltr">HEAD</text></g><g stroke-linecap="round" transform="translate(1290 70) rotate(0 59.96800812216679 28.205718520740447)"><path d="M-1.1 -0.46 C44.42 -0.3, 88.78 1.72, 119.62 -0.08 M-0.97 -0.22 C35.36 0.83, 70.64 2.06, 119.14 -0.77 M119.19 -1.75 C118.61 14.45, 121.76 23.45, 121.74 56.26 M120.64 0.47 C119.82 21.41, 119.76 44.78, 119.45 56.66 M120.72 57.43 C74.25 55.53, 28.85 58.78, 0.05 56.93 M119.24 56.18 C95.45 55.92, 70.27 56.42, -0.04 55.86 M-0.09 56.26 C0.46 35.43, -2.11 19.74, 0.6 -0.5 M-0.05 57.29 C-0.44 36.21, 0.31 17.3, -0.08 0.38" stroke="#000000" stroke-width="4" fill="none"></path></g><g transform="translate(1330 50) rotate(0 16.674416639817537 11.73384874653857)"><text x="0" y="16.467697493077033" font-family="Virgil, Segoe UI Emoji" font-size="18.476780229816047px" fill="#000000" text-anchor="start" style="white-space: pre;" direction="ltr">KEY</text></g><g transform="translate(1530 50) rotate(0 26.761409421929784 11.73384874653857)"><text x="0" y="16.467697493077033" font-family="Virgil, Segoe UI Emoji" font-size="18.476780229816075px" fill="#000000" text-anchor="start" style="white-space: pre;" direction="ltr">DATA</text></g><g transform="translate(1295.0367354501177 75.03673545013226) rotate(0 54.900416406441764 23.168983070608192)"><text x="54.900416406441316" y="32.33796614121651" font-family="Virgil, Segoe UI Emoji" font-size="36.26449524095206px" fill="#000000" text-anchor="middle" style="white-space: pre;" direction="ltr">Value</text></g><g stroke-linecap="round" transform="translate(1410 70) rotate(0 150 28.5)"><path d="M0.32 -1.17 C71.24 0.98, 143.79 1.22, 300.17 -0.48 M0.05 0.07 C86.88 0.9, 172.81 1.52, 300.17 0.18 M299.42 1.07 C300.14 22.02, 301.07 43.56, 301.94 57.92 M300.41 0.59 C300.63 15.71, 300.82 30.43, 299.27 56.43 M301.23 56.3 C218.52 56.35, 137.27 56.64, -1.02 56.61 M299.67 57.42 C203.94 56.3, 107.88 56.68, -0.61 56.45 M1.95 55.98 C0.1 41.83, -0.45 22.12, 1.45 -0.51 M0.56 57.1 C0.59 40.66, -0.46 24.39, 0.35 -0.56" stroke="#000000" stroke-width="4" fill="none"></path></g><g transform="translate(1415 75.5) rotate(0 145 23)"><text x="145" y="32" font-family="Virgil, Segoe UI Emoji" font-size="36.26449524095206px" fill="#000000" text-anchor="middle" style="white-space: pre;" direction="ltr">7</text></g><g stroke-linecap="round" transform="translate(1290 190) rotate(0 60 28.205718520740447)"><path d="M-1.88 1.45 C35.18 0.11, 71.55 0.15, 121.12 0.21 M0.17 0.35 C43.04 0.87, 87.23 -0.05, 120.97 0.57 M121.76 -0.41 C119.05 20.45, 120.05 41.87, 121.95 57.76 M120.38 0.82 C120.9 17.47, 120.16 34.21, 119.91 56.88 M120.09 55.94 C96.25 57.05, 67.72 55.85, 1.34 56.27 M120.01 57.31 C89.48 56.92, 59.51 57.81, 0.79 56.67 M0.58 54.98 C-2.31 37.92, -2.19 21, 1.16 -1.24 M-0.19 55.45 C0.49 36.54, 0.51 17.77, -0.73 -0.84" stroke="#000000" stroke-width="4" fill="none"></path></g><g transform="translate(1295 195.20571852074045) rotate(0 55 23)"><text x="55" y="32" font-family="Virgil, Segoe UI Emoji" font-size="36.26449524095206px" fill="#000000" text-anchor="middle" style="white-space: pre;" direction="ltr">Next</text></g><g stroke-linecap="round" transform="translate(1410 190) rotate(0 150 28.5)"><path d="M-0.18 0.12 C61.61 1.38, 123.67 1.49, 300.07 -0.61 M0.27 0.02 C94.7 1.95, 190.63 1.83, 299.81 -0.56 M298.99 0.2 C298.83 24.06, 301.23 44.41, 300.96 57.82 M300.01 -0.11 C299.76 19.19, 300.93 37.71, 300.63 56.47 M300.94 56.41 C208.67 60.17, 117.12 58.53, -0.09 58.43 M299.52 57.53 C209.9 57.76, 119.65 57.24, 0.51 56.29 M-1.1 55.2 C-0.22 39.4, -0.83 20.32, -0.36 0.4 M-0.63 57.41 C0.4 40.23, -0.29 25.43, 0.83 0.51" stroke="#000000" stroke-width="4" fill="none"></path></g><g transform="translate(1415 195.5) rotate(0 145 23)"><text x="145" y="32" font-family="Virgil, Segoe UI Emoji" font-size="36.26449524095206px" fill="#000000" text-anchor="middle" style="white-space: pre;" direction="ltr">0x03</text></g><g stroke-linecap="round" transform="translate(1290 130) rotate(0 60 28.205718520740447)"><path d="M0.7 -1.12 C37.36 -0.15, 72.13 1.74, 121.14 1.61 M-0.2 -0.4 C32.41 -0.96, 65.32 -0.08, 120.68 0.09 M121.64 1.26 C120.25 19.42, 118.82 39.09, 120.93 54.7 M119.77 1 C120.34 20.06, 119.74 41.58, 119.93 55.96 M121.8 56.57 C83.45 57.86, 50 57.99, 0.51 56.58 M119.28 55.45 C75.08 55.86, 30.93 57.34, -0.62 56.82 M-1.93 57.19 C-1.36 41.34, -0.4 23.15, -1.69 1.03 M0.13 56.43 C-0.95 35.41, 0.64 13.67, -0.87 -0.7" stroke="#000000" stroke-width="4" fill="none"></path></g><g transform="translate(1295 135.20571852074045) rotate(0 55 23)"><text x="55" y="32" font-family="Virgil, Segoe UI Emoji" font-size="36.26449524095206px" fill="#000000" text-anchor="middle" style="white-space: pre;" direction="ltr">Min</text></g><g stroke-linecap="round" transform="translate(1410 130) rotate(0 150 28.5)"><path d="M0.04 -0.8 C101.89 0.01, 202.12 -1.2, 298.88 1.29 M0.07 -0.39 C84.61 1.61, 167.85 1.47, 300.3 0.28 M299.78 -1.41 C300.17 22.69, 298.65 44.78, 298.93 57.09 M299.6 0.04 C301.24 15.69, 300.12 31.46, 300.98 57.01 M301.06 57.34 C184.15 55.92, 66.12 56.57, -1.43 57.42 M299.34 56.77 C231.88 55.34, 163.22 55.66, 0.15 56.86 M0.82 56.71 C-1.68 43.71, 0.8 35.46, 1.03 -1.66 M0.62 57.93 C0.51 38.32, -0.71 20.65, -0.46 0.47" stroke="#000000" stroke-width="4" fill="none"></path></g><g transform="translate(1415 135.5) rotate(0 145 23)"><text x="145" y="32" font-family="Virgil, Segoe UI Emoji" font-size="36.26449524095206px" fill="#000000" text-anchor="middle" style="white-space: pre;" direction="ltr">1</text></g><g stroke-linecap="round" transform="translate(1290 1330) rotate(0 59.96800812216679 28.205718520740447)"><path d="M0.76 -1.09 C45.76 0.87, 87.03 -1.77, 121.42 0.73 M-0.42 0.63 C23.68 -0.84, 49.28 -0.73, 119.08 0.39 M118.3 0.61 C121.42 18.04, 118.7 39.2, 119.62 55.09 M120.76 -0.25 C119.88 14.05, 120.15 27.52, 119.76 56.77 M119.53 55.5 C85.62 57.03, 54.66 55.62, 0.7 56.52 M119.52 56.27 C88.71 56.84, 58.93 55.89, -0.09 56.24 M-0.47 55.11 C0.77 39.47, -1.72 20.39, -1.29 -1.37 M0.59 56.21 C0.63 40.05, -0.82 22.95, -0.81 0.65" stroke="#000000" stroke-width="4" fill="none"></path></g><g transform="translate(1330 1310) rotate(0 16.674416639817537 11.73384874653857)"><text x="0" y="16.467697493077033" font-family="Virgil, Segoe UI Emoji" font-size="18.476780229816047px" fill="#000000" text-anchor="start" style="white-space: pre;" direction="ltr">KEY</text></g><g transform="translate(1530 1310) rotate(0 26.761409421929784 11.73384874653857)"><text x="0" y="16.467697493077033" font-family="Virgil, Segoe UI Emoji" font-size="18.476780229816075px" fill="#000000" text-anchor="start" style="white-space: pre;" direction="ltr">DATA</text></g><g transform="translate(1295.0367354501177 1335.0367354501323) rotate(0 54.900416406441764 23.168983070608192)"><text x="54.900416406441316" y="32.33796614121651" font-family="Virgil, Segoe UI Emoji" font-size="36.26449524095206px" fill="#000000" text-anchor="middle" style="white-space: pre;" direction="ltr">Value</text></g><g stroke-linecap="round" transform="translate(1410 1330) rotate(0 150 28.5)"><path d="M-1.3 -0.86 C74.75 -1.08, 145.92 -2.94, 300.85 -0.61 M0.11 -0.02 C108.18 0.61, 217.91 0.23, 300.7 -0.6 M298.84 0.65 C300.13 17.53, 299.31 38.8, 299.73 58.64 M299.9 0.05 C299.62 16.03, 299.52 31.55, 299.93 56.8 M300.21 56.48 C224.18 57.85, 146.67 58.38, -0.11 56.39 M300.06 56.69 C214.32 58, 128.95 58.77, 0.58 56.83 M-1.23 57.54 C-1.65 42.24, -0.5 31.11, 0.48 1.19 M-0.57 56.57 C-1.31 41.71, 0.33 24.12, 0.54 0.93" stroke="#000000" stroke-width="4" fill="none"></path></g><g transform="translate(1415 1335.5) rotate(0 145 23)"><text x="145" y="32" font-family="Virgil, Segoe UI Emoji" font-size="36.26449524095206px" fill="#000000" text-anchor="middle" style="white-space: pre;" direction="ltr">2</text></g><g stroke-linecap="round" transform="translate(1290 490) rotate(0 59.96800812216679 28.205718520740447)"><path d="M-1.52 0.92 C30.73 -0.9, 58.95 -2.17, 119.45 1.12 M-0.23 0.13 C42.19 0.21, 84.14 0.94, 119.41 0.4 M121.53 -1.55 C120.13 15.14, 119.23 32.27, 119.57 56.18 M120.78 -0.52 C119.37 17.21, 119.67 35.27, 119.61 55.93 M120.27 58.21 C95.16 55.44, 67.98 56.23, -1.62 54.49 M119.94 56.99 C71.9 56.76, 24.13 55.84, -0.09 56.71 M-1.59 57.6 C-0.1 41.56, -1.13 28.27, 0.43 -1.58 M-0.52 55.95 C0.54 34.73, 0.6 12.56, -0.47 0.91" stroke="#000000" stroke-width="4" fill="none"></path></g><g transform="translate(1330 470) rotate(0 16.674416639817537 11.73384874653857)"><text x="0" y="16.467697493077033" font-family="Virgil, Segoe UI Emoji" font-size="18.476780229816047px" fill="#000000" text-anchor="start" style="white-space: pre;" direction="ltr">KEY</text></g><g transform="translate(1530 470) rotate(0 26.761409421929784 11.73384874653857)"><text x="0" y="16.467697493077033" font-family="Virgil, Segoe UI Emoji" font-size="18.476780229816075px" fill="#000000" text-anchor="start" style="white-space: pre;" direction="ltr">DATA</text></g><g transform="translate(1295.0367354501177 495.03673545013226) rotate(0 54.900416406441764 23.168983070608192)"><text x="54.900416406441316" y="32.33796614121651" font-family="Virgil, Segoe UI Emoji" font-size="36.26449524095206px" fill="#000000" text-anchor="middle" style="white-space: pre;" direction="ltr">Value</text></g><g stroke-linecap="round" transform="translate(1410 490) rotate(0 150 28.5)"><path d="M-1.12 -0.36 C99.54 2.21, 197.51 1.19, 299.66 0.19 M0.51 -0.39 C98.76 -0.91, 197.48 -0.47, 300.58 -0.57 M301.18 -0.36 C299.66 16.82, 298.64 31.54, 301.69 55.96 M299.34 -0.32 C299.09 15.07, 299.94 31.35, 300.17 57.9 M300.22 55.81 C186.56 59.04, 74.51 57.68, 0 57.84 M299.52 56.93 C216.23 56.37, 132.56 57.41, -0.58 57.44 M0.53 57.43 C-1.43 40.65, 1.1 20.13, -1.03 -0.92 M-0.81 56.53 C1 36.1, 0.81 14.11, -0.38 1" stroke="#000000" stroke-width="4" fill="none"></path></g><g transform="translate(1415 495.5) rotate(0 145 23)"><text x="145" y="32" font-family="Virgil, Segoe UI Emoji" font-size="36.26449524095206px" fill="#000000" text-anchor="middle" style="white-space: pre;" direction="ltr">1</text></g><g stroke-linecap="round" transform="translate(1290 610) rotate(0 60 28.205718520740447)"><path d="M-0.4 -0.46 C43 0.5, 85.42 0.6, 121.4 -1.05 M0.35 0.8 C40.08 -1.01, 81.52 -1.46, 120.59 -0.18 M118.64 1.69 C119.07 15.85, 118.59 32.73, 118.69 55.77 M119.6 0.17 C120.44 14.96, 119.3 28.73, 120.15 55.6 M120.13 56.41 C96.68 54.84, 71.61 54.98, -1.3 56.23 M120.96 55.61 C81.04 57.43, 40.63 56.91, 0.27 56.63 M-0.92 55.38 C-1.38 45.57, -0.77 33.21, -1.61 -0.94 M0.56 56.03 C0.53 34.02, 0.04 13.19, 0.21 -0.86" stroke="#000000" stroke-width="4" fill="none"></path></g><g transform="translate(1295 615.2057185207414) rotate(0 55 23)"><text x="55" y="32" font-family="Virgil, Segoe UI Emoji" font-size="36.26449524095206px" fill="#000000" text-anchor="middle" style="white-space: pre;" direction="ltr">Next</text></g><g stroke-linecap="round" transform="translate(1410 610) rotate(0 150 28.5)"><path d="M0.41 -0.04 C84.51 0.74, 167.28 0.31, 299.64 1.09 M-0.08 -0.15 C100.07 2.14, 200.84 1.62, 300.14 -0.46 M299.57 -1.51 C300.66 11.91, 299.84 25.49, 298.38 57.74 M300.73 -0.24 C300.36 14.96, 299.28 28.66, 300.99 56.03 M299.71 57.4 C207.84 57.32, 115.93 58.7, -0.67 58.05 M300.11 56.81 C180.86 58.5, 62.41 57.73, 0.6 57.35 M1.62 56.69 C2.02 40.9, -0.65 29.85, 1.64 1.45 M-0.33 57.51 C1.13 36.92, -0.64 16.07, 0.81 -0.57" stroke="#000000" stroke-width="4" fill="none"></path></g><g transform="translate(1415 615.5) rotate(0 145 23)"><text x="145" y="32" font-family="Virgil, Segoe UI Emoji" font-size="36.26449524095206px" fill="#000000" text-anchor="middle" style="white-space: pre;" direction="ltr">0x02</text></g><g stroke-linecap="round" transform="translate(1290 550) rotate(0 60 28.205718520740447)"><path d="M1.4 -1.05 C40.2 -0.89, 80.27 0.3, 121.6 -1.55 M0.59 -0.18 C34.52 0.86, 68.64 0, 120.85 -0.52 M118.69 -0.64 C118.62 14.09, 120.31 30.63, 120.34 58.21 M120.15 -0.81 C118.9 22.05, 118.89 42.2, 120 56.99 M118.7 56.23 C87 55.34, 54.25 58.18, -1.59 57.6 M120.27 56.63 C81.36 56.79, 44.78 55.52, -0.52 55.95 M-1.61 55.47 C1.91 36.56, 1.54 14.53, -0.76 2 M0.21 55.56 C-0.64 42.16, -0.85 27.11, 0.92 -0.57" stroke="#000000" stroke-width="4" fill="none"></path></g><g transform="translate(1295 555.2057185207414) rotate(0 55 23)"><text x="55" y="32" font-family="Virgil, Segoe UI Emoji" font-size="36.26449524095206px" fill="#000000" text-anchor="middle" style="white-space: pre;" direction="ltr">Min</text></g><g stroke-linecap="round" transform="translate(1410 550) rotate(0 150 28.5)"><path d="M-0.36 1.09 C111.55 0.28, 220.95 -1.06, 299.7 -0.83 M0.14 -0.46 C107.24 0.87, 215.1 0.1, 299.45 0.06 M298.38 0.74 C299.01 13.69, 301.62 28.19, 299.51 57.54 M300.99 -0.97 C299.6 17.95, 300.11 35.7, 300.27 56.87 M299.33 58.05 C230.86 56.48, 159.77 57.88, -0.37 56.47 M300.6 57.35 C201.65 54.88, 103.63 55.86, -0.12 57.63 M1.64 58.45 C1.39 43.73, 2.27 31.34, 1.01 1.82 M0.81 56.43 C1.32 39.64, -0.08 21.28, 0.01 0.95" stroke="#000000" stroke-width="4" fill="none"></path></g><g transform="translate(1415 555.5) rotate(0 145 23)"><text x="145" y="32" font-family="Virgil, Segoe UI Emoji" font-size="36.26449524095206px" fill="#000000" text-anchor="middle" style="white-space: pre;" direction="ltr">1</text></g><g stroke-linecap="round" transform="translate(1290 1450) rotate(0 60 28.205718520740447)"><path d="M1.49 0.73 C42.89 -1.1, 90.74 -0.13, 121.25 -1.77 M-0.85 0.39 C34.65 -0.1, 69.42 -0.78, 120.31 0.78 M119.69 -1.32 C118.54 14.53, 119.4 28.52, 119.5 55.68 M119.82 0.36 C119.68 18.92, 119.88 37.23, 119.54 55.65 M120.7 56.52 C78.87 56.81, 39.41 55.16, -0.29 55.05 M119.91 56.24 C78.08 56.78, 36.47 55.66, -0.65 57.04 M-1.29 55.04 C0.2 36.61, 0.82 16.23, -0.41 1.77 M-0.81 57.06 C1.15 37.6, 0.86 21.71, 0.89 0.03" stroke="#000000" stroke-width="4" fill="none"></path></g><g transform="translate(1295 1455.2057185207414) rotate(0 55 23)"><text x="55" y="32" font-family="Virgil, Segoe UI Emoji" font-size="36.26449524095206px" fill="#000000" text-anchor="middle" style="white-space: pre;" direction="ltr">Next</text></g><g stroke-linecap="round" transform="translate(1410 1450) rotate(0 150 28.5)"><path d="M-1.4 -1.33 C73.2 -1.42, 145.6 -2.1, 299.78 0.22 M0.31 -0.1 C89.78 -1.45, 178.38 -0.28, 299.55 -0.43 M298.87 1.09 C299.64 20.58, 299.41 37.15, 300.63 56.8 M299.73 0.2 C299.83 17.19, 299.44 34.03, 300.35 57.14 M299.34 57.61 C220.61 56.51, 141.22 56.12, 0.75 57.12 M300.18 57.64 C223.45 56.45, 145.26 57.09, 0.49 56.55 M-0.14 57.88 C0.85 39.55, -0.04 21.5, 0.32 -1.15 M0.83 56.01 C1 43.26, 1.35 27.68, 0.68 0.88" stroke="#000000" stroke-width="4" fill="none"></path></g><g transform="translate(1415 1455.5) rotate(0 145 23)"><text x="145" y="32" font-family="Virgil, Segoe UI Emoji" font-size="36.26449524095206px" fill="#000000" text-anchor="middle" style="white-space: pre;" direction="ltr">null</text></g><g stroke-linecap="round" transform="translate(1290 1390) rotate(0 60 28.205718520740447)"><path d="M1.16 -0.84 C41.64 -0.69, 80.47 1.38, 119.94 -1.7 M0.96 -0.82 C40.94 0.94, 80.65 -0.42, 120.32 -0.16 M119.73 1.64 C119.18 12.46, 120.32 26.18, 120.1 56.06 M119.93 -0.2 C119.39 18.16, 120.2 38, 119.64 56.76 M119.85 55.59 C83.06 55.55, 47.74 57.07, -0.86 56.22 M120.79 56.18 C85.4 58.1, 52.78 56.85, 0.27 55.76 M0.48 57.6 C-0.36 45.11, 0.36 29.13, -0.85 -1.62 M0.54 57.34 C0.42 35.84, 0.21 16.09, -0.22 -0.28" stroke="#000000" stroke-width="4" fill="none"></path></g><g transform="translate(1295 1395.2057185207414) rotate(0 55 23)"><text x="55" y="32" font-family="Virgil, Segoe UI Emoji" font-size="36.26449524095206px" fill="#000000" text-anchor="middle" style="white-space: pre;" direction="ltr">Min</text></g><g stroke-linecap="round" transform="translate(1410 1390) rotate(0 150 28.5)"><path d="M0.92 -1.3 C62.68 1.14, 125.74 -0.33, 300.57 0.61 M0.23 0.57 C85.53 1.37, 172.21 1.68, 299.51 -0.41 M299.5 -0.73 C300.56 20.01, 300.03 40.07, 300.71 56.47 M299.54 -0.77 C300.31 18.4, 299.6 36.86, 300.05 56.55 M299.79 56 C198.35 56.21, 94.56 55.95, -0.25 57.35 M299.52 57.46 C184.1 56.03, 67.42 56.01, -0.5 56.95 M-0.41 58.77 C0.18 36.24, -0.99 16.16, 1.3 1.66 M0.89 57.03 C0.38 46.43, -0.53 33.82, 0.95 0.05" stroke="#000000" stroke-width="4" fill="none"></path></g><g transform="translate(1415 1395.5) rotate(0 145 23)"><text x="145" y="32" font-family="Virgil, Segoe UI Emoji" font-size="36.26449524095206px" fill="#000000" text-anchor="middle" style="white-space: pre;" direction="ltr">2</text></g><g stroke-linecap="round" transform="translate(1951.5694807706222 90) rotate(0 90 50)"><path d="M-1.15 1.67 C47.6 -2.16, 95.8 -1.14, 181.35 1.18 M-0.98 -0.48 C46.82 -1.96, 91.25 -1.06, 179.12 0.58 M181.99 -0.05 C181.36 37.49, 181.53 74.26, 181.79 100.75 M179.31 0.02 C180.37 33.81, 181.46 66.46, 180.72 99.69 M180.75 101.78 C130.82 99.7, 84.68 99.16, -0.96 98.51 M180.89 99.45 C119.99 97.73, 60.25 98.57, 0.95 100.73 M1.54 101.66 C1.52 63.91, 0.6 27.33, -1.52 -0.85 M-0.85 99.29 C-0.41 62.12, -0.38 23.71, -0.65 0.24" stroke="#000000" stroke-width="4" fill="none"></path></g><g stroke-linecap="round"><g transform="translate(1951.5694807706222 150) rotate(0 -110.88499654204588 0.4800225077010509)"><path d="M-0.2 0.27 C-37.11 0.19, -183.97 0.25, -220.41 0.04 M-1.76 -0.63 C-38.96 -0.55, -185.36 1.53, -221.57 1.59" stroke="#000000" stroke-width="4" fill="none"></path></g><g transform="translate(1951.5694807706222 150) rotate(0 -110.88499654204588 0.4800225077010509)"><path d="M-193.02 -9.59 C-204.29 -2.96, -217.01 -0.66, -222.29 3.08 M-193.58 -7.99 C-199.84 -6.61, -205.27 -4.83, -222.31 2.29" stroke="#000000" stroke-width="4" fill="none"></path></g><g transform="translate(1951.5694807706222 150) rotate(0 -110.88499654204588 0.4800225077010509)"><path d="M-192.84 10.93 C-204.27 9.58, -217.05 3.9, -222.29 3.08 M-193.4 12.53 C-199.87 9.28, -205.35 6.44, -222.31 2.29" stroke="#000000" stroke-width="4" fill="none"></path></g></g><g stroke-linecap="round" transform="translate(1290 910) rotate(0 59.96800812216679 28.205718520740447)"><path d="M0.82 -0.53 C43.22 -1.4, 87.25 0.87, 119.39 0.87 M-0.61 0.51 C37.3 0.28, 75.51 0.12, 119.9 0.29 M121.42 1.72 C117.88 20.71, 118.37 43.03, 119.12 57.04 M119.52 -0.77 C119.59 22.71, 119.65 43.01, 119.93 56.1 M118.65 55.69 C82.68 55.57, 48.01 55.29, 1.9 57.61 M120.85 56.31 C94.79 56.2, 70.59 58.15, 0.75 55.69 M0.23 55.35 C-1.88 38.23, 1.22 17.93, -0.1 -0.11 M-0.77 56.66 C1.1 36.32, 1.06 17.23, 0.39 0.66" stroke="#000000" stroke-width="4" fill="none"></path></g><g transform="translate(1330 890) rotate(0 16.674416639817537 11.73384874653857)"><text x="0" y="16.467697493077033" font-family="Virgil, Segoe UI Emoji" font-size="18.476780229816047px" fill="#000000" text-anchor="start" style="white-space: pre;" direction="ltr">KEY</text></g><g transform="translate(1530 890) rotate(0 26.761409421929784 11.73384874653857)"><text x="0" y="16.467697493077033" font-family="Virgil, Segoe UI Emoji" font-size="18.476780229816075px" fill="#000000" text-anchor="start" style="white-space: pre;" direction="ltr">DATA</text></g><g transform="translate(1295.0367354501177 915.0367354501323) rotate(0 54.900416406441764 23.168983070608192)"><text x="54.900416406441316" y="32.33796614121651" font-family="Virgil, Segoe UI Emoji" font-size="36.26449524095206px" fill="#000000" text-anchor="middle" style="white-space: pre;" direction="ltr">Value</text></g><g stroke-linecap="round" transform="translate(1410 910) rotate(0 150 28.5)"><path d="M-0.98 0.91 C81.72 1.77, 164.5 -0.16, 299.82 -0.89 M-0.53 -0.02 C105.34 -0.07, 211.23 -0.83, 300.54 0.54 M298.85 1.48 C298.72 22.62, 301.31 43.84, 300.91 56.16 M299.76 -0.85 C299.82 12.42, 299.83 26.37, 300.44 56.36 M300.06 55.79 C222.16 56.37, 140.19 54.45, 0.94 58.34 M300.41 57.72 C213.74 54.33, 126.76 55.52, -0.49 57.08 M1.73 58.39 C0.29 42.81, 1.23 27.24, -0.76 -1.54 M0.61 56.4 C0.02 39.14, -0.25 19.47, 0.42 0.04" stroke="#000000" stroke-width="4" fill="none"></path></g><g transform="translate(1415 915.5) rotate(0 145 23)"><text x="145" y="32" font-family="Virgil, Segoe UI Emoji" font-size="36.26449524095206px" fill="#000000" text-anchor="middle" style="white-space: pre;" direction="ltr">24</text></g><g stroke-linecap="round" transform="translate(1290 1030) rotate(0 60 28.205718520740447)"><path d="M-0.55 0.87 C30.18 -2.51, 59.39 -1.95, 121.02 -1.62 M-0.04 0.29 C38.26 -0.7, 75.89 0.78, 120.86 -0.82 M119.19 0.62 C121.45 16.59, 120.59 32.63, 118.47 55.8 M119.99 -0.31 C119.87 22.28, 120.3 42.08, 119.64 55.79 M121.9 57.61 C90.35 53.99, 65.66 57.25, -0.21 56.02 M120.75 55.69 C96.21 58.48, 70.67 57.7, -0.53 55.73 M-0.1 56.3 C0.35 32.93, -1.25 11.11, 0.5 1.31 M0.39 57.07 C-0.22 43.51, 0.08 31.63, -0.99 -0.23" stroke="#000000" stroke-width="4" fill="none"></path></g><g transform="translate(1295 1035.2057185207414) rotate(0 55 23)"><text x="55" y="32" font-family="Virgil, Segoe UI Emoji" font-size="36.26449524095206px" fill="#000000" text-anchor="middle" style="white-space: pre;" direction="ltr">Next</text></g><g stroke-linecap="round" transform="translate(1410 1030) rotate(0 150 28.5)"><path d="M0.26 -1.3 C108.34 -1.84, 217.8 -2.14, 300.19 -1.05 M0.5 -0.54 C89.59 -0.1, 178.73 -1.25, 299.98 -0.42 M301.77 -0.15 C300.68 20.47, 298.23 42.01, 301.57 56.52 M300 0.92 C300.43 11.64, 299.64 23.94, 299.32 57.04 M298.65 55.95 C235.63 59.65, 169.24 58.02, -1.43 57.83 M300.39 57.66 C180.24 55.49, 61.08 54.9, 0.64 57.63 M0.84 55.4 C-0.73 34.4, 0.52 16.19, -1.6 1.21 M0.13 56.51 C0.2 43.35, -1.21 29.39, 0.42 0.46" stroke="#000000" stroke-width="4" fill="none"></path></g><g stroke-linecap="round" transform="translate(1290 970) rotate(0 60 28.205718520740447)"><path d="M-0.25 -1.21 C42.22 -0.56, 82.66 -0.38, 119.94 -0.08 M0.73 0.74 C40.39 0.07, 79.02 0.32, 120.74 -0.41 M120.91 -0.84 C118.97 18.07, 122.07 36.89, 118.31 56.4 M120.44 -0.64 C119.64 14.57, 119.32 30.43, 119.18 57.36 M121.28 58.23 C76.61 55.15, 31.71 56.68, 1.95 57.92 M119.33 56.53 C92.19 56.8, 66.31 58.36, 0.69 56.36 M-0.76 54.87 C0.26 41.1, -1.84 24.4, -1.2 0.78 M0.42 56.45 C-1.06 35.53, 0.35 15.58, 0.64 -0.03" stroke="#000000" stroke-width="4" fill="none"></path></g><g transform="translate(1295 975.2057185207414) rotate(0 55 23)"><text x="55" y="32" font-family="Virgil, Segoe UI Emoji" font-size="36.26449524095206px" fill="#000000" text-anchor="middle" style="white-space: pre;" direction="ltr">Min</text></g><g stroke-linecap="round" transform="translate(1410 970) rotate(0 150 28.5)"><path d="M0.75 -1.19 C63.69 0.28, 126.95 1.28, 300.43 1 M0.63 -0.6 C67.77 -2.05, 136.14 -1.93, 300.23 0.65 M298.47 -0.61 C301.83 16.2, 298.57 33.34, 299.39 57 M299.64 -0.62 C299.57 22.39, 299.43 45.64, 300.6 56.08 M299.84 56.71 C230.11 59.83, 164.5 60.11, -1.07 57.78 M299.61 56.5 C183.68 57.89, 66.58 57.22, -0.04 57.31 M0.5 58.31 C-1.38 45.67, -0.98 32.7, 1.32 0.25 M-0.99 56.77 C0.18 43.17, 0.4 28.4, 0.75 -0.88" stroke="#000000" stroke-width="4" fill="none"></path></g><g transform="translate(1415 975.5) rotate(0 145 23)"><text x="145" y="32" font-family="Virgil, Segoe UI Emoji" font-size="36.26449524095206px" fill="#000000" text-anchor="middle" style="white-space: pre;" direction="ltr">2</text></g><g transform="translate(1050 1379.1312143763162) rotate(0 40 23)"><text x="0" y="32" font-family="Virgil, Segoe UI Emoji" font-size="36px" fill="#000000" text-anchor="start" style="white-space: pre;" direction="ltr">0x01</text></g><g transform="translate(1050 950) rotate(0 48.5 23)"><text x="0" y="32" font-family="Virgil, Segoe UI Emoji" font-size="36px" fill="#000000" text-anchor="start" style="white-space: pre;" direction="ltr">0x02</text></g><g transform="translate(1050 550) rotate(0 48 23)"><text x="0" y="32" font-family="Virgil, Segoe UI Emoji" font-size="36px" fill="#000000" text-anchor="start" style="white-space: pre;" direction="ltr">0x03</text></g><g transform="translate(1050 110) rotate(0 46.5 45.5)"><text x="0" y="32.5" font-family="Virgil, Segoe UI Emoji" font-size="36px" fill="#000000" text-anchor="start" style="white-space: pre;" direction="ltr">0x04</text><text x="0" y="78" font-family="Virgil, Segoe UI Emoji" font-size="36px" fill="#000000" text-anchor="start" style="white-space: pre;" direction="ltr"></text></g><g transform="translate(1415 1035.5) rotate(0 145 23)"><text x="145" y="32" font-family="Virgil, Segoe UI Emoji" font-size="36px" fill="#000000" text-anchor="middle" style="white-space: pre;" direction="ltr">0x01</text></g><g stroke-linecap="round" transform="translate(504.8692105622722 770) rotate(0 161.69663631620188 59.566718555692205)"><path d="M0.27 1.21 C94.61 0.91, 188.4 2.38, 322.07 -1.28 M-0.2 -0.43 C116.79 -1.18, 235.08 -1.49, 323.47 -0.29 M324.44 -0.78 C322.12 33.99, 323.85 68.29, 325.25 119.86 M323.78 0.9 C321.69 31.27, 321.73 60.69, 323.29 118.74 M322.84 120.42 C195.71 119.58, 68.75 118.26, 1 120.17 M323.12 118.89 C229.22 120.61, 133.95 120.75, -0.04 118.66 M-0.78 119.8 C0.4 91.77, 0.87 63.87, 1.65 1.33 M0.59 119.63 C0.87 93.47, -0.36 67.55, 0.89 -0.74" stroke="#000000" stroke-width="4" fill="none"></path></g><g stroke-linecap="round" transform="translate(504.8692105622722 889.5332386301689) rotate(0 161.69663631620188 59.566718555692205)"><path d="M1.21 0.26 C118.32 -0.73, 239.36 -1.76, 322.11 0.88 M-0.43 -0.64 C107.94 0.87, 215.72 0.72, 323.1 -0.14 M322.61 -0.74 C324.32 31.38, 325.29 62.63, 324.12 118.23 M324.29 -0.54 C323.65 23.6, 322.69 48.09, 323 120.06 M324.68 118.48 C252.02 117.67, 178.21 119.24, 1.03 119.02 M323.15 119.35 C253.37 117.58, 184 118.2, -0.47 118.68 M0.67 120.49 C-0.17 75.61, -0.04 30.07, 1.33 -1.66 M0.49 119.46 C-0.56 87.92, -0.61 59.42, -0.74 0.23" stroke="#000000" stroke-width="4" fill="none"></path></g><g stroke-linecap="round" transform="translate(504.8692105622722 1010.060516666862) rotate(0 161.69663631620188 59.566718555692205)"><path d="M0.26 -1.25 C65.6 -1.74, 130.47 -3.24, 324.27 0.48 M-0.64 -0.14 C112.21 0.94, 224.05 1.1, 323.25 -0.31 M322.65 0.65 C325.01 40.11, 325.88 77.72, 322.49 117.18 M322.85 0.9 C323.36 29.25, 323.74 58.23, 324.32 118.38 M322.74 120.26 C235.55 121.02, 149.86 122.25, -0.11 117.95 M323.61 118.63 C197.23 117.98, 72.34 117.87, -0.45 119.69 M1.36 119.8 C2.29 75.82, 2.11 32.23, -1.66 -0.91 M0.33 119.34 C-1.61 75.9, 0.19 31.61, 0.23 -0.38" stroke="#000000" stroke-width="4" fill="none"></path></g><g stroke-linecap="round" transform="translate(504.8692105622722 1132.3273636649174) rotate(0 161.69663631620188 59.566718555692205)"><path d="M-1.25 -0.3 C103.51 -1.74, 205.32 0.46, 323.87 0.64 M-0.14 0.22 C87.31 2.13, 175.23 1.91, 323.08 0.16 M324.05 0.99 C324.55 43.85, 323.66 83.09, 321.44 118.05 M324.3 -0.49 C324.41 40.21, 324.08 81.55, 322.63 118.83 M324.52 118.56 C238.99 119.07, 156.01 117.97, -1.18 120.36 M322.89 118.48 C238.94 119.81, 154.72 119.39, 0.56 119.62 M0.67 120.96 C0.4 89.69, 0.93 55.3, -0.91 1.28 M0.21 118.23 C-0.43 77.25, -1.33 33.82, -0.38 -0.03" stroke="#000000" stroke-width="4" fill="none"></path></g><g transform="translate(431.1182943323147 799.0000068061627) rotate(0 19.01100364908598 34.66712430127427)"><text x="0" y="48.33424860254813" font-family="Virgil, Segoe UI Emoji" font-size="55.08635044288454px" fill="#000000" text-anchor="start" style="white-space: pre;" direction="ltr">0</text></g><g transform="translate(442.30123765529424 918.0424384794169) rotate(0 7.268913159944532 34.66712430127427)"><text x="0" y="48.33424860254813" font-family="Virgil, Segoe UI Emoji" font-size="55.08635044288451px" fill="#000000" text-anchor="start" style="white-space: pre;" direction="ltr">1</text></g><g transform="translate(430 1037.0848701526456) rotate(0 19.570150815235138 34.66712430127427)"><text x="0" y="48.33424860254813" font-family="Virgil, Segoe UI Emoji" font-size="55.08635044288452px" fill="#000000" text-anchor="start" style="white-space: pre;" direction="ltr">2</text></g><g transform="translate(430.5591471661428 1156.1273018259017) rotate(0 19.01100364908598 34.66712430127427)"><text x="0" y="48.33424860254813" font-family="Virgil, Segoe UI Emoji" font-size="55.08635044288454px" fill="#000000" text-anchor="start" style="white-space: pre;" direction="ltr">3</text></g><g transform="translate(10 1030) rotate(0 186.09261403786059 44.5846887799039)"><text x="0" y="63.16937755980818" font-family="Virgil, Segoe UI Emoji" font-size="69.78473026419772px" fill="#000000" text-anchor="start" style="white-space: pre;" direction="ltr">MY_STACk</text></g><g stroke-linecap="round"><g transform="translate(730 1210) rotate(0 130.26520405482552 79.70034955604024)"><path d="M0.6 -0.73 C43.91 25.66, 215.77 132.19, 258.93 159.08 M-0.55 1.5 C43.21 27.94, 217.89 133.96, 261.08 160.13" stroke="#000000" stroke-width="4" fill="none"></path></g><g transform="translate(730 1210) rotate(0 130.26520405482552 79.70034955604024)"><path d="M230.43 152.5 C236.63 154.71, 245.63 156.03, 259.59 159.12 M231.65 154.02 C237.47 155.3, 244.27 157.77, 260.4 160.14" stroke="#000000" stroke-width="4" fill="none"></path></g><g transform="translate(730 1210) rotate(0 130.26520405482552 79.70034955604024)"><path d="M241.07 134.96 C245.04 141.08, 251.69 146.26, 259.59 159.12 M242.29 136.47 C245.79 141.27, 250.42 147.31, 260.4 160.14" stroke="#000000" stroke-width="4" fill="none"></path></g></g><g stroke-linecap="round"><g transform="translate(690 1070) rotate(0 170.2605782095343 -40.02924757041046)"><path d="M-0.3 0.58 C56.56 -13.06, 284.05 -67.12, 340.83 -80.64 M1.74 -0.16 C58.55 -13.14, 283.97 -66.21, 340.31 -79.44" stroke="#000000" stroke-width="4" fill="none"></path></g><g transform="translate(690 1070) rotate(0 170.2605782095343 -40.02924757041046)"><path d="M316.18 -61.62 C320.7 -66.74, 327.59 -73.04, 339.14 -78.94 M315.59 -62.83 C324.74 -68.35, 333.99 -75.02, 340.43 -78.5" stroke="#000000" stroke-width="4" fill="none"></path></g><g transform="translate(690 1070) rotate(0 170.2605782095343 -40.02924757041046)"><path d="M311.49 -81.6 C317.46 -81.36, 325.6 -82.31, 339.14 -78.94 M310.89 -82.81 C321.9 -81.07, 332.86 -80.46, 340.43 -78.5" stroke="#000000" stroke-width="4" fill="none"></path></g></g><g stroke-linecap="round"><g transform="translate(731.1564299408346 951.7008568395304) rotate(0 168.84604366663825 -151.66175910143193)"><path d="M-1.16 -0.43 C55.13 -50.72, 282.36 -252.84, 338.85 -302.89 M0.44 -1.7 C56.47 -51.79, 281.3 -251.84, 337.9 -301.98" stroke="#000000" stroke-width="4" fill="none"></path></g><g transform="translate(731.1564299408346 951.7008568395304) rotate(0 168.84604366663825 -151.66175910143193)"><path d="M322.92 -275.58 C327.51 -287.66, 336.73 -296.12, 337.73 -300 M322.68 -276.18 C328.88 -284.39, 332.63 -291.98, 337.71 -301.49" stroke="#000000" stroke-width="4" fill="none"></path></g><g transform="translate(731.1564299408346 951.7008568395304) rotate(0 168.84604366663825 -151.66175910143193)"><path d="M309.3 -290.93 C319.1 -296.83, 333.69 -299.26, 337.73 -300 M309.06 -291.52 C319.27 -295.13, 327.16 -298.06, 337.71 -301.49" stroke="#000000" stroke-width="4" fill="none"></path></g></g><g stroke-linecap="round"><g transform="translate(650.7582742806517 811.7052507214621) rotate(0 189.0767073398465 -320.9837229877894)"><path d="M-0.76 -0.26 C62.43 -107.1, 315.73 -534.89, 378.91 -641.71 M1.04 -1.44 C64.06 -108.02, 314.5 -533.2, 377.79 -640.17" stroke="#000000" stroke-width="4" fill="none"></path></g><g transform="translate(650.7582742806517 811.7052507214621) rotate(0 189.0767073398465 -320.9837229877894)"><path d="M371.87 -611.23 C374 -620.46, 376.4 -628.84, 376.82 -639.17 M371.44 -611.64 C374.03 -619.18, 374.91 -626.28, 378.7 -639.51" stroke="#000000" stroke-width="4" fill="none"></path></g><g transform="translate(650.7582742806517 811.7052507214621) rotate(0 189.0767073398465 -320.9837229877894)"><path d="M354.2 -621.66 C361.26 -627.84, 368.64 -633.27, 376.82 -639.17 M353.77 -622.07 C361.05 -626.83, 366.73 -631.11, 378.7 -639.51" stroke="#000000" stroke-width="4" fill="none"></path></g></g></svg>