<svg version="1.1" xmlns="http://www.w3.org/2000/svg" viewBox="0 0 920 440" width="920" height="440">
  <!-- svg-source:excalidraw -->
  
  <defs>
    <style>
      @font-face {
        font-family: "Virgil";
        src: url("https://excalidraw.com/Virgil.woff2");
      }
      @font-face {
        font-family: "Cascadia";
        src: url("https://excalidraw.com/Cascadia.woff2");
      }
    </style>
  </defs>
  <rect x="0" y="0" width="920" height="440" fill="#ffffff"></rect><g stroke-linecap="round" transform="translate(10 70) rotate(0 350 50)"><path d="M0.55 0.68 C225.78 -0.2, 451.18 0.26, 700.24 0.58 M-0.34 0.08 C203.93 -2.16, 407.43 -2.1, 700.25 0.36 M698.98 -1.36 C699.69 26.19, 698.94 47.32, 700.02 100.34 M699.88 -0.93 C698.96 35.63, 699.37 72.8, 700.43 99.78 M700.74 99.5 C528.78 99.53, 357.23 99.86, 0.6 100.05 M700.36 100.24 C539.78 100.53, 379.91 100.48, 0.22 100.01 M0.68 98.81 C-0.38 61.85, 0.78 24.03, -1.62 -0.4 M0.07 100.91 C0.53 66.17, 0.4 32.65, -0.76 0.3" stroke="#000000" stroke-width="1" fill="none"></path></g><g stroke-linecap="round" transform="translate(10 70) rotate(0 50 50)"><path d="M-1.18 -1.02 C37.67 -0.29, 79.96 -1.04, 98.76 0.02 M-0.71 -0.12 C30.77 -0.24, 62.78 0.17, 100.28 0.43 M99.93 1.85 C98.2 27.29, 98.5 53.75, 99.9 101.49 M100.05 0.9 C99.89 30.57, 100.22 62.02, 100.82 100.56 M100.42 100.68 C68.49 98.92, 38.8 100.08, -0.81 98.38 M99.59 100.07 C72.91 99.76, 43.96 99.63, 0.23 99.24 M-1.24 100.9 C0.75 68.65, 0.77 32.28, 0.53 -0.51 M0.81 99.44 C-1.72 64.3, -1.64 28.31, -0.74 -0.95" stroke="#000000" stroke-width="1" fill="none"></path></g><g stroke-linecap="round" transform="translate(110 70) rotate(0 50 50)"><path d="M1.87 1.51 C40.61 1.18, 78 1.58, 99.3 0.42 M-0.28 0.22 C32.98 -0.44, 66.58 0.74, 99.61 -0.41 M99.92 0.02 C101.37 29.14, 101.5 61.36, 100.3 98.76 M100.4 -0.88 C100.65 34.23, 100.92 69.85, 100.72 100.81 M98.49 98.21 C74.17 97.81, 52.57 101.63, -1.39 99.02 M99.69 100.48 C70.36 99.45, 40.14 100.21, -0.36 100.52 M0.07 100.32 C1.55 77.99, 0.01 57.26, -0.77 0.65 M-0.16 99.12 C-0.52 78.99, 0.29 57.15, 0.58 -0.01" stroke="#000000" stroke-width="1" fill="none"></path></g><g stroke-linecap="round" transform="translate(210 70) rotate(0 50 50)"><path d="M1.56 -1.58 C24.67 -0.8, 51.24 -0.31, 101.03 -0.24 M-0.64 0.36 C33.14 1.02, 65.96 0.41, 100.71 -0.96 M101.35 1.98 C99.65 34.75, 98.25 70.93, 99.15 101.35 M99.44 0.62 C101.18 28.62, 100.94 58.08, 100.26 100.66 M101.53 101.58 C70.72 100.5, 38.79 98.12, 0.56 100.37 M100.08 99.31 C63.73 99.63, 26.63 100.96, -0.18 99.49 M0.75 99.29 C0.44 69.23, 0.39 42.2, 0.11 0.44 M0.65 100.37 C-0.69 70.81, 0.14 40.86, 0.71 -0.63" stroke="#000000" stroke-width="1" fill="none"></path></g><g stroke-linecap="round" transform="translate(310 70) rotate(0 50 50)"><path d="M-1.58 -1.63 C36.16 -2.14, 73.7 0.25, 99.76 0.51 M0.36 0.59 C31.22 1.48, 61.43 1.35, 99.04 0.53 M101.98 0.53 C99.13 20.32, 99.97 41.53, 101.35 99.73 M100.62 0.95 C100.74 33.06, 101.54 64.97, 100.66 100.02 M101.58 100.88 C69.59 99.88, 35.84 101.33, 0.37 101.43 M99.31 100.89 C72.82 101.04, 47.49 99.9, -0.51 99.97 M-0.71 100.47 C-1.19 70.19, 1.52 39.67, 0.44 -0.16 M0.37 99.1 C-0.5 71.97, -1.24 44.8, -0.63 -0.94" stroke="#000000" stroke-width="1" fill="none"></path></g><g stroke-linecap="round" transform="translate(410 70) rotate(0 50 50)"><path d="M1.41 1.54 C36.74 1.37, 72.48 0.31, 99.06 1.53 M-0.44 -0.7 C38.17 -0.3, 76.5 -0.82, 100.16 0.08 M101.91 1.59 C100.53 22.05, 100.84 46.21, 100.32 100.75 M100.2 0.84 C100.29 26.66, 100.15 52.68, 100.52 100.65 M99.86 98.54 C67.77 98.77, 30.81 100.54, 1.87 101.54 M100.79 100.19 C71.41 99.7, 41.35 99.94, -0.68 100.78 M1.5 98.61 C0.37 59.24, -0.72 20.97, -1.39 -1.87 M0.89 99.23 C-0.09 70.73, -0.21 44.09, -0.47 -0.12" stroke="#000000" stroke-width="1" fill="none"></path></g><g stroke-linecap="round" transform="translate(510 70) rotate(0 50 50)"><path d="M1.54 0.52 C40.79 -0.67, 79.19 -1.64, 101.53 1.58 M-0.7 0.28 C34.57 1.16, 68.43 0.6, 100.08 -0.69 M101.59 -0.36 C98.44 38.85, 99.51 78.12, 100.75 99.29 M100.84 0.06 C99.71 32.25, 99.28 65.17, 100.65 100.37 M98.54 101.42 C77.73 98.05, 58.48 101.8, 1.54 99.81 M100.19 100.44 C71.76 100.2, 43.5 100.12, 0.78 101 M-1.39 99.65 C-0.46 75.81, 1.27 53.12, -1.87 -0.34 M-0.77 99.97 C-0.72 69.27, 0.93 38.35, -0.12 -0.42" stroke="#000000" stroke-width="1" fill="none"></path></g><g transform="translate(15 97.5) rotate(0 45 22.5)"><text x="45" y="32" font-family="Virgil, Segoe UI Emoji" font-size="36px" fill="#000000" text-anchor="middle" style="white-space: pre;" direction="ltr">M</text></g><g transform="translate(115 97.5) rotate(0 45 22.5)"><text x="45" y="32" font-family="Virgil, Segoe UI Emoji" font-size="36px" fill="#000000" text-anchor="middle" style="white-space: pre;" direction="ltr">y</text></g><g transform="translate(315 97.5) rotate(0 45 22.5)"><text x="45" y="32" font-family="Virgil, Segoe UI Emoji" font-size="36px" fill="#000000" text-anchor="middle" style="white-space: pre;" direction="ltr">s</text></g><g transform="translate(415 97.5) rotate(0 45 22.5)"><text x="45" y="32" font-family="Virgil, Segoe UI Emoji" font-size="36px" fill="#000000" text-anchor="middle" style="white-space: pre;" direction="ltr">t</text></g><g transform="translate(515 97.5) rotate(0 45 22.5)"><text x="45" y="32" font-family="Virgil, Segoe UI Emoji" font-size="36px" fill="#000000" text-anchor="middle" style="white-space: pre;" direction="ltr">r</text></g><g transform="translate(649.5 101.33333337306976) rotate(0 4.5 22.5)"><text x="0" y="32" font-family="Virgil, Segoe UI Emoji" font-size="36px" fill="#000000" text-anchor="start" style="white-space: pre;" direction="ltr">i</text></g><g stroke-linecap="round" transform="translate(710 70) rotate(0 50 50)"><path d="M0.42 -0.37 C33.58 1.08, 67.81 -1.32, 98.39 0.21 M0.1 -0.9 C20.6 -0.08, 41.54 -0.16, 100.55 -0.14 M101.36 -0.38 C101.74 31.14, 100.74 59.54, 99.73 101.25 M100.11 0.51 C100.15 21.82, 99.38 42.32, 100.32 99.04 M100.77 101.12 C60.16 100.8, 22.63 100.97, -1.18 99.07 M99.01 99.33 C62.69 98.35, 25.12 99.21, 0.21 99.89 M0.88 100.16 C0.45 67.51, 0.22 37.31, -0.65 1.9 M0.43 99.24 C-0.38 67.33, -0.55 34.35, 0.3 0.04" stroke="#000000" stroke-width="1" fill="none"></path></g><g stroke-linecap="round" transform="translate(810 70) rotate(0 50 50)"><path d="M-0.37 -0.86 C39.73 -1.27, 76.38 -1.82, 100.21 -1.79 M-0.9 -0.46 C22.76 -0.69, 45.57 0.45, 99.86 0.02 M99.62 0.86 C100.28 38.66, 98.44 77.32, 101.25 98.19 M100.51 0.3 C101.81 28.03, 101.32 57.32, 99.04 100.88 M101.12 98.95 C73.39 100.6, 46.39 99.2, -0.93 101.55 M99.33 100.43 C64.57 99.6, 30.8 99.22, -0.11 100.06 M0.16 100.08 C-1.09 73.6, -0.73 46.86, 1.9 0.51 M-0.76 100.54 C-0.36 61.11, -0.76 21.76, 0.04 0.11" stroke="#000000" stroke-width="1" fill="none"></path></g><g transform="translate(715 97.5) rotate(0 45 22.5)"><text x="45" y="32" font-family="Virgil, Segoe UI Emoji" font-size="36px" fill="#000000" text-anchor="middle" style="white-space: pre;" direction="ltr">n</text></g><g transform="translate(815 97.5) rotate(0 45 22.5)"><text x="45" y="32" font-family="Virgil, Segoe UI Emoji" font-size="36px" fill="#000000" text-anchor="middle" style="white-space: pre;" direction="ltr">g</text></g><g stroke-linecap="round" transform="translate(10 330) rotate(0 350 50)"><path d="M0.34 -0.61 C228.46 -0.82, 456.35 -1.14, 700.24 0.03 M0.19 0.13 C218.28 -1.05, 436.1 -0.87, 700.16 -0.36 M701.11 0.33 C700.96 25.33, 699.2 47, 700.76 101.39 M700.29 -0.92 C700.17 19.7, 699.14 39.64, 699.8 99.2 M699.2 99.88 C555.86 97.31, 411.8 97.1, -0.12 99.37 M700.14 100.37 C555.02 101.88, 409.32 101.68, 0.06 99.76 M1.52 100.9 C0.86 66.69, -1.99 32.33, 1.2 1.46 M-0.51 99.1 C-0.03 62.22, -0.98 23.33, 0.39 -0.33" stroke="#000000" stroke-width="1" fill="none"></path></g><g stroke-linecap="round" transform="translate(10 330) rotate(0 50 50)"><path d="M-1.53 1.09 C39.08 0.34, 77.55 0.17, 100.08 0.23 M0.32 0.79 C25.3 -0.08, 51.44 -0.08, 99.1 -0.66 M100.33 1.1 C102.45 27.98, 100.76 58.06, 101.39 98.04 M99.08 0.31 C99.49 27.92, 99.21 57.08, 99.2 99.05 M99.7 99 C63.83 97.2, 27.06 98.7, -1.56 98.15 M100.93 100.67 C72.83 99.9, 44.61 100.5, -0.6 100.3 M0.9 101.04 C-0.04 66.33, -1.37 37.44, 1.46 1.59 M-0.9 100.06 C0.78 68.22, -0.18 38.61, -0.33 -0.58" stroke="#000000" stroke-width="1" fill="none"></path></g><g stroke-linecap="round" transform="translate(110 330) rotate(0 50 50)"><path d="M1.09 -0.19 C33.44 -0.23, 65.95 0.84, 100.23 -0.86 M0.79 -0.38 C33.61 -0.24, 66.82 -1.22, 99.34 -0.14 M101.1 1.96 C99.89 35.14, 101.32 71.12, 98.04 99.73 M100.31 -0.52 C99.56 29.32, 100.09 59.44, 99.05 100.62 M99 100.07 C77.9 99.39, 59.11 98.29, -1.85 99.54 M100.67 100.55 C63.61 100.98, 28.28 100.34, 0.3 100.19 M1.04 99.71 C-2.56 70.9, 0.43 46.5, 1.59 0.18 M0.06 100.15 C-0.38 75.56, 0.9 52.43, -0.58 -0.92" stroke="#000000" stroke-width="1" fill="none"></path></g><g stroke-linecap="round" transform="translate(210 330) rotate(0 50 50)"><path d="M-0.19 0.76 C33.3 0.06, 68.65 -0.32, 99.14 0.64 M-0.38 0.41 C34.91 -0.39, 68.76 -1.46, 99.86 0.49 M101.96 -0.66 C100.44 36.29, 101.55 69.1, 99.73 100.02 M99.48 -0.72 C98.28 32.67, 98.28 64.78, 100.62 99.03 M100.07 98.19 C79.5 99.19, 58.35 97.65, -0.46 101.19 M100.55 99.55 C66.55 100.83, 32.42 100.98, 0.19 99.75 M-0.29 98.2 C-2.07 63.57, 1.01 26.34, 0.18 -1.28 M0.15 99.11 C0.08 75.48, 0.57 49.59, -0.92 -0.28" stroke="#000000" stroke-width="1" fill="none"></path></g><g stroke-linecap="round" transform="translate(310 330) rotate(0 50 50)"><path d="M0.76 -0.99 C22.96 0.17, 44.95 -0.77, 100.64 0.97 M0.41 0.08 C33.58 -0.52, 65.68 0.25, 100.49 0.55 M99.34 0.28 C101.31 33.03, 98.59 63.01, 100.02 100.57 M99.28 -0.8 C100.11 19.99, 99.36 42.21, 99.03 99 M98.19 99.54 C71.19 98.47, 41.14 99.58, 1.19 100.7 M99.55 100.04 C60.84 99.95, 21.68 100.73, -0.25 100.76 M-1.8 98.38 C0.68 66.97, 1.06 31.2, -1.28 -1.02 M-0.89 99.18 C0.33 78.65, -0.64 57.04, -0.28 -0.94" stroke="#000000" stroke-width="1" fill="none"></path></g><g stroke-linecap="round" transform="translate(410 330) rotate(0 50 50)"><path d="M-0.99 0.6 C35.51 -0.15, 70 0.26, 100.97 0.63 M0.08 0.4 C37.03 -1.07, 75.74 0.08, 100.55 0.16 M100.28 0.76 C102.37 33.53, 100.71 70.99, 100.57 98.16 M99.2 -0.2 C98.68 32.16, 100.1 65.24, 99 99.85 M99.54 99.7 C73.46 97.25, 49.59 100.28, 0.7 101.86 M100.04 100.15 C62.67 99.85, 26.73 99.3, 0.76 100.45 M-1.62 101.2 C1.61 66.37, 0.32 28.3, -1.02 -1.8 M-0.82 100.39 C-0.47 68.79, -1.07 38.45, -0.94 0.12" stroke="#000000" stroke-width="1" fill="none"></path></g><g stroke-linecap="round" transform="translate(510 330) rotate(0 50 50)"><path d="M0.6 0.08 C29.27 -0.37, 58.73 1.46, 100.63 1.59 M0.4 -0.9 C25.52 -0.21, 52.86 0.48, 100.16 0.55 M100.76 1.39 C97.71 39.55, 99.69 80.21, 98.16 100.62 M99.8 -0.8 C98.33 25.38, 98.31 48.52, 99.85 99.5 M99.7 98.44 C67.82 99.31, 40.53 100.47, 1.86 101.35 M100.15 99.4 C64.85 100.23, 28.84 100.81, 0.45 100.52 M1.2 101.46 C2.48 71.62, -0.38 41.87, -1.8 0.13 M0.39 99.67 C0.31 67.62, 0.61 36.15, 0.12 0.73" stroke="#000000" stroke-width="1" fill="none"></path></g><g transform="translate(15 357.5) rotate(0 45 22.5)"><text x="45" y="32" font-family="Virgil, Segoe UI Emoji" font-size="36px" fill="#000000" text-anchor="middle" style="white-space: pre;" direction="ltr">g</text></g><g transform="translate(315 357.5) rotate(0 45 22.5)"><text x="45" y="32" font-family="Virgil, Segoe UI Emoji" font-size="36px" fill="#000000" text-anchor="middle" style="white-space: pre;" direction="ltr">r</text></g><g stroke-linecap="round" transform="translate(710 330) rotate(0 50 50)"><path d="M1.59 -0.76 C34.02 -0.17, 67.22 -2.12, 98.67 -0.27 M0.55 0.98 C34.53 -0.03, 70.11 0.53, 99.02 -0.14 M100.62 -1.05 C98.84 28.52, 99.89 58.64, 98.11 101.25 M99.5 0.03 C98.1 20.07, 98.85 39.81, 99.08 99.77 M101.35 101.09 C63.16 101.02, 28.43 99.74, 0.6 100.38 M100.52 99.86 C71.62 99.64, 45.64 101.18, 0.79 100.09 M0.13 100.29 C-1.27 74.74, 1.3 52.11, -1.16 -1.84 M0.73 99.04 C1.75 72.56, 1.89 46.32, -0.17 0.75" stroke="#000000" stroke-width="1" fill="none"></path></g><g stroke-linecap="round" transform="translate(810 330) rotate(0 50 50)"><path d="M-0.76 0.81 C34.99 0.02, 67.86 -2.12, 99.73 0.97 M0.98 -0.33 C35.66 -0.17, 71.75 -1.53, 99.86 0.01 M98.95 -1.44 C97.47 32.47, 97.48 63.83, 101.25 98.06 M100.03 -0.9 C99.62 19.89, 99.07 39.17, 99.77 100.59 M101.09 99.1 C66.6 100.98, 31.82 101.28, 0.38 99.5 M99.86 99.1 C61.57 101.12, 25.49 101.31, 0.09 99.36 M0.29 98.22 C-0.74 75.87, 0.25 49.02, -1.84 -0.56 M-0.96 100.82 C-0.36 80.33, 0.59 58.59, 0.75 0.47" stroke="#000000" stroke-width="1" fill="none"></path></g><g stroke-linecap="round"><g transform="translate(850 170) rotate(0 -389.1366590530425 79.74085058398543)"><path d="M-0.57 -0.03 C-130.6 26.47, -649.36 132.61, -779.12 159.37 M1.33 -1.09 C-128.88 25.53, -649.48 133.99, -779.61 160.57" stroke="#000000" stroke-width="1" fill="none"></path></g><g transform="translate(850 170) rotate(0 -389.1366590530425 79.74085058398543)"><path d="M-754.12 146.29 C-765.03 152.29, -773.09 156.87, -779.17 159.21 M-753.33 144.21 C-759.26 148.45, -765.31 151.13, -779.55 160.87" stroke="#000000" stroke-width="1" fill="none"></path></g><g transform="translate(850 170) rotate(0 -389.1366590530425 79.74085058398543)"><path d="M-749.97 166.38 C-762.56 164.53, -772.23 161.29, -779.17 159.21 M-749.18 164.31 C-755.96 163.81, -762.99 161.78, -779.55 160.87" stroke="#000000" stroke-width="1" fill="none"></path></g></g><g stroke-linecap="round"><g transform="translate(750 170) rotate(0 -288.9009133805893 80.15363601259888)"><path d="M-0.53 -0.76 C-96.95 26.26, -482.14 134.21, -578.85 161.07 M1.4 1.46 C-95.05 28.26, -482.57 133.38, -579.2 159.5" stroke="#000000" stroke-width="1" fill="none"></path></g><g transform="translate(750 170) rotate(0 -288.9009133805893 80.15363601259888)"><path d="M-555.94 144.14 C-559.72 145.45, -567.56 149.85, -577.49 160.35 M-554.13 142.95 C-562.89 147.81, -571.89 154.04, -578.78 158.62" stroke="#000000" stroke-width="1" fill="none"></path></g><g transform="translate(750 170) rotate(0 -288.9009133805893 80.15363601259888)"><path d="M-550.57 163.95 C-555.63 159.85, -564.94 158.86, -577.49 160.35 M-548.76 162.76 C-559.41 160.4, -570.36 159.43, -578.78 158.62" stroke="#000000" stroke-width="1" fill="none"></path></g></g><g stroke-linecap="round"><g transform="translate(650 170) rotate(0 -189.85920748612847 80.65811283400284)"><path d="M-0.87 1.17 C-64.42 27.63, -317.46 132.74, -380.59 159.37 M0.87 0.74 C-62.34 27.3, -314.67 134.18, -378.19 160.57" stroke="#000000" stroke-width="1" fill="none"></path></g><g transform="translate(650 170) rotate(0 -189.85920748612847 80.65811283400284)"><path d="M-354.22 139.21 C-364.99 147.92, -370.26 155.16, -378.63 160.51 M-355.35 139.45 C-363.26 146.55, -367.55 150.37, -379.07 159.9" stroke="#000000" stroke-width="1" fill="none"></path></g><g transform="translate(650 170) rotate(0 -189.85920748612847 80.65811283400284)"><path d="M-346.27 158.13 C-359.98 160.01, -368.09 160.49, -378.63 160.51 M-347.4 158.37 C-357.3 160.29, -363.74 158.98, -379.07 159.9" stroke="#000000" stroke-width="1" fill="none"></path></g></g><g stroke-linecap="round"><g transform="translate(550 170) rotate(0 -90.09950862636794 80.36909659525382)"><path d="M-1.13 0.01 C-31.1 26.9, -150.12 133.39, -179.82 160.15 M0.47 -1.03 C-29.64 26.18, -150.63 135.18, -180.67 161.77" stroke="#000000" stroke-width="1" fill="none"></path></g><g transform="translate(550 170) rotate(0 -90.09950862636794 80.36909659525382)"><path d="M-166.48 135.63 C-170.74 144.18, -174.29 149.41, -181.36 161.99 M-166.37 135.38 C-169.63 139.7, -172.38 146.66, -180.87 162.71" stroke="#000000" stroke-width="1" fill="none"></path></g><g transform="translate(550 170) rotate(0 -90.09950862636794 80.36909659525382)"><path d="M-152.8 150.93 C-160.99 154.78, -168.63 155.44, -181.36 161.99 M-152.69 150.67 C-158.84 151.7, -164.42 155.51, -180.87 162.71" stroke="#000000" stroke-width="1" fill="none"></path></g></g><g stroke-linecap="round"><g transform="translate(450 170) rotate(0 -0.17601116452777887 79.2550296922587)"><path d="M0.42 -0.46 C0.51 25.88, 0.48 132.58, 0.33 159.16 M-0.82 -1.74 C-0.83 25.24, -0.33 133.33, -0.44 160.25" stroke="#000000" stroke-width="1" fill="none"></path></g><g transform="translate(450 170) rotate(0 -0.17601116452777887 79.2550296922587)"><path d="M-11.48 132.62 C-8.99 139.12, -6.39 147.54, -2.22 159.13 M-10.2 131.86 C-6.42 142.22, -3.22 154.59, -0.02 160.28" stroke="#000000" stroke-width="1" fill="none"></path></g><g transform="translate(450 170) rotate(0 -0.17601116452777887 79.2550296922587)"><path d="M9.04 132.61 C5.79 139.18, 2.66 147.61, -2.22 159.13 M10.32 131.84 C5.93 142.36, 0.96 154.75, -0.02 160.28" stroke="#000000" stroke-width="1" fill="none"></path></g></g><g stroke-linecap="round"><g transform="translate(370 170) rotate(0 99.50901964716616 79.88738835640251)"><path d="M-1.19 -0.73 C32.22 25.96, 166.67 133.83, 200.21 160.5 M0.39 1.5 C33.68 27.8, 166.21 132.18, 199.36 158.65" stroke="#000000" stroke-width="1" fill="none"></path></g><g transform="translate(370 170) rotate(0 99.50901964716616 79.88738835640251)"><path d="M169.68 149.53 C179.7 152.17, 185.68 153.97, 200 159.41 M170.89 150.17 C179.28 150.83, 186.79 155.16, 198.84 158.67" stroke="#000000" stroke-width="1" fill="none"></path></g><g transform="translate(370 170) rotate(0 99.50901964716616 79.88738835640251)"><path d="M182.42 133.44 C188.94 140.44, 191.37 146.72, 200 159.41 M183.63 134.09 C188.19 139.55, 191.96 148.61, 198.84 158.67" stroke="#000000" stroke-width="1" fill="none"></path></g></g><g stroke-linecap="round"><g transform="translate(250 170) rotate(0 210.31132622770963 79.74400954581799)"><path d="M-0.32 -0.58 C69.94 25.92, 350.95 132.17, 420.95 159.04 M1.71 1.73 C71.95 28.35, 351 133.92, 420.5 160.07" stroke="#000000" stroke-width="1" fill="none"></path></g><g transform="translate(250 170) rotate(0 210.31132622770963 79.74400954581799)"><path d="M389.53 161.29 C396.32 159.28, 406.4 161.83, 421.56 161.29 M390.86 160.49 C397.8 159.46, 403.56 159.76, 419.54 159.97" stroke="#000000" stroke-width="1" fill="none"></path></g><g transform="translate(250 170) rotate(0 210.31132622770963 79.74400954581799)"><path d="M396.78 142.09 C401.78 144.81, 410.06 152.12, 421.56 161.29 M398.11 141.29 C403.45 144.32, 407.65 148.72, 419.54 159.97" stroke="#000000" stroke-width="1" fill="none"></path></g></g><g stroke-linecap="round"><g transform="translate(170 170) rotate(0 299.3764582296554 80.37520369580947)"><path d="M0.09 0.8 C100.12 27.58, 499.93 134.21, 600.08 160.57 M-1.33 0.18 C98.56 26.61, 498.82 132.15, 599.18 158.75" stroke="#000000" stroke-width="1" fill="none"></path></g><g transform="translate(170 170) rotate(0 299.3764582296554 80.37520369580947)"><path d="M570.64 161.6 C578.92 162.36, 584.95 161.43, 597.9 160.54 M569.22 162.21 C577.49 160.79, 585.48 160.18, 598.72 158.2" stroke="#000000" stroke-width="1" fill="none"></path></g><g transform="translate(170 170) rotate(0 299.3764582296554 80.37520369580947)"><path d="M575.88 141.76 C582.63 148.28, 587.14 153.11, 597.9 160.54 M574.46 142.37 C581.11 146.46, 587.64 151.39, 598.72 158.2" stroke="#000000" stroke-width="1" fill="none"></path></g></g><g stroke-linecap="round"><g transform="translate(70 170) rotate(0 399.3840431604628 80.23739869750104)"><path d="M0.43 0.63 C133.68 27.34, 666.44 134.12, 799.58 160.56 M-0.81 -0.08 C132.25 26.25, 664.65 132.02, 798.4 158.73" stroke="#000000" stroke-width="1" fill="none"></path></g><g transform="translate(70 170) rotate(0 399.3840431604628 80.23739869750104)"><path d="M769.8 162.58 C778.65 160.5, 785.46 161.51, 799.87 159.11 M769.66 162.55 C778.46 161.83, 789.22 161.06, 797.85 157.97" stroke="#000000" stroke-width="1" fill="none"></path></g><g transform="translate(70 170) rotate(0 399.3840431604628 80.23739869750104)"><path d="M773.81 142.45 C781.49 146.48, 787.09 153.58, 799.87 159.11 M773.67 142.42 C781.23 148.33, 790.66 154.22, 797.85 157.97" stroke="#000000" stroke-width="1" fill="none"></path></g></g><g transform="translate(115 357.5) rotate(0 45 22.5)"><text x="45" y="32" font-family="Virgil, Segoe UI Emoji" font-size="36px" fill="#000000" text-anchor="middle" style="white-space: pre;" direction="ltr">n</text></g><g transform="translate(215 357.5) rotate(0 45 22.5)"><text x="45" y="32" font-family="Virgil, Segoe UI Emoji" font-size="36px" fill="#000000" text-anchor="middle" style="white-space: pre;" direction="ltr">i</text></g><g transform="translate(415 357.5) rotate(0 45 22.5)"><text x="45" y="32" font-family="Virgil, Segoe UI Emoji" font-size="36px" fill="#000000" text-anchor="middle" style="white-space: pre;" direction="ltr">t</text></g><g transform="translate(515 357.5) rotate(0 45 22.5)"><text x="45" y="32" font-family="Virgil, Segoe UI Emoji" font-size="36px" fill="#000000" text-anchor="middle" style="white-space: pre;" direction="ltr">s</text></g><g transform="translate(715 357.5) rotate(0 45 22.5)"><text x="45" y="32" font-family="Virgil, Segoe UI Emoji" font-size="36px" fill="#000000" text-anchor="middle" style="white-space: pre;" direction="ltr">y</text></g><g transform="translate(815 357.5) rotate(0 45 22.5)"><text x="45" y="32" font-family="Virgil, Segoe UI Emoji" font-size="36px" fill="#000000" text-anchor="middle" style="white-space: pre;" direction="ltr">M</text></g><g transform="translate(47.5 20.333333373069763) rotate(0 13 22.5)"><text x="0" y="32" font-family="Virgil, Segoe UI Emoji" font-size="36px" fill="#000000" text-anchor="start" style="white-space: pre;" direction="ltr">0</text></g><g transform="translate(158.5 17.333333373069763) rotate(0 5.5 22.5)"><text x="0" y="32" font-family="Virgil, Segoe UI Emoji" font-size="36px" fill="#000000" text-anchor="start" style="white-space: pre;" direction="ltr">1</text></g><g transform="translate(250 10) rotate(0 13.5 22.5)"><text x="0" y="32" font-family="Virgil, Segoe UI Emoji" font-size="36px" fill="#000000" text-anchor="start" style="white-space: pre;" direction="ltr">2</text></g><g transform="translate(348.5 18.333333373069763) rotate(0 13 22.5)"><text x="0" y="32" font-family="Virgil, Segoe UI Emoji" font-size="36px" fill="#000000" text-anchor="start" style="white-space: pre;" direction="ltr">3</text></g><g transform="translate(462.5 17.333333373069763) rotate(0 12 22.5)"><text x="0" y="32" font-family="Virgil, Segoe UI Emoji" font-size="36px" fill="#000000" text-anchor="start" style="white-space: pre;" direction="ltr">4</text></g><g transform="translate(544.5 22.333333373069763) rotate(0 11.5 22.5)"><text x="0" y="32" font-family="Virgil, Segoe UI Emoji" font-size="36px" fill="#000000" text-anchor="start" style="white-space: pre;" direction="ltr">5</text></g><g transform="translate(650.5 16.333333373069763) rotate(0 12 22.5)"><text x="0" y="32" font-family="Virgil, Segoe UI Emoji" font-size="36px" fill="#000000" text-anchor="start" style="white-space: pre;" direction="ltr">6</text></g><g transform="translate(751.5 19.333333373069763) rotate(0 10 22.5)"><text x="0" y="32" font-family="Virgil, Segoe UI Emoji" font-size="36px" fill="#000000" text-anchor="start" style="white-space: pre;" direction="ltr">7</text></g><g transform="translate(850 10) rotate(0 14.5 22.5)"><text x="0" y="32" font-family="Virgil, Segoe UI Emoji" font-size="36px" fill="#000000" text-anchor="start" style="white-space: pre;" direction="ltr">8</text></g></svg>